<svg width="35" height="78" viewBox="0 0 35 78" fill="none" xmlns="http://www.w3.org/2000/svg">
<mask id="mask0_624_7201" style="mask-type:alpha" maskUnits="userSpaceOnUse" x="0" y="0" width="35" height="274">
<path d="M11.8359 273.654V55.3828H23.3044V273.654H11.8359Z" fill="#5856D6" stroke="url(#paint0_linear_624_7201)" stroke-width="0.626318"/>
<mask id="path-2-inside-1_624_7201" fill="white">
<path fill-rule="evenodd" clip-rule="evenodd" d="M8.23529 0C3.68707 0 0 3.68706 0 8.23529L0 47.6275C0 52.1757 3.68707 55.8627 8.23529 55.8627H26.7647C31.3129 55.8627 35 52.1757 35 47.6275V35.5161H21.4583V31.4466H35V28.4864H21.4583V24.417H35V21.4567H21.4583V17.3873H35V8.23529C35 3.68707 31.3129 0 26.7647 0L8.23529 0Z"/>
</mask>
<path fill-rule="evenodd" clip-rule="evenodd" d="M8.23529 0C3.68707 0 0 3.68706 0 8.23529L0 47.6275C0 52.1757 3.68707 55.8627 8.23529 55.8627H26.7647C31.3129 55.8627 35 52.1757 35 47.6275V35.5161H21.4583V31.4466H35V28.4864H21.4583V24.417H35V21.4567H21.4583V17.3873H35V8.23529C35 3.68707 31.3129 0 26.7647 0L8.23529 0Z" fill="#5856D6"/>
<path d="M35 35.5161H35.6263V34.8898H35V35.5161ZM21.4583 35.5161H20.832V36.1424H21.4583V35.5161ZM21.4583 31.4466V30.8203H20.832V31.4466H21.4583ZM35 31.4466V32.0729H35.6263V31.4466H35ZM35 28.4864H35.6263V27.8601H35V28.4864ZM21.4583 28.4864H20.832V29.1127H21.4583V28.4864ZM21.4583 24.417V23.7906H20.832V24.417H21.4583ZM35 24.417V25.0433H35.6263V24.417H35ZM35 21.4567H35.6263V20.8304H35V21.4567ZM21.4583 21.4567H20.832V22.0831H21.4583V21.4567ZM21.4583 17.3873V16.761H20.832V17.3873H21.4583ZM35 17.3873V18.0136H35.6263V17.3873H35ZM0.626318 8.23529C0.626318 4.03297 4.03297 0.626318 8.23529 0.626318V-0.626318C3.34116 -0.626318 -0.626318 3.34116 -0.626318 8.23529H0.626318ZM0.626318 47.6275V8.23529H-0.626318V47.6275H0.626318ZM8.23529 55.2364C4.03297 55.2364 0.626318 51.8298 0.626318 47.6275H-0.626318C-0.626318 52.5216 3.34116 56.4891 8.23529 56.4891V55.2364ZM26.7647 55.2364H8.23529V56.4891H26.7647V55.2364ZM34.3737 47.6275C34.3737 51.8298 30.967 55.2364 26.7647 55.2364V56.4891C31.6588 56.4891 35.6263 52.5216 35.6263 47.6275H34.3737ZM34.3737 35.5161V47.6275H35.6263V35.5161H34.3737ZM35 34.8898H21.4583V36.1424H35V34.8898ZM22.0846 35.5161V31.4466H20.832V35.5161H22.0846ZM21.4583 32.0729H35V30.8203H21.4583V32.0729ZM34.3737 28.4864V31.4466H35.6263V28.4864H34.3737ZM21.4583 29.1127H35V27.8601H21.4583V29.1127ZM20.832 24.417V28.4864H22.0846V24.417H20.832ZM35 23.7906H21.4583V25.0433H35V23.7906ZM34.3737 21.4567V24.417H35.6263V21.4567H34.3737ZM21.4583 22.0831H35V20.8304H21.4583V22.0831ZM20.832 17.3873V21.4567H22.0846V17.3873H20.832ZM35 16.761H21.4583V18.0136H35V16.761ZM34.3737 8.23529V17.3873H35.6263V8.23529H34.3737ZM26.7647 0.626318C30.967 0.626318 34.3737 4.03297 34.3737 8.23529H35.6263C35.6263 3.34116 31.6588 -0.626318 26.7647 -0.626318V0.626318ZM8.23529 0.626318H26.7647V-0.626318H8.23529V0.626318Z" fill="url(#paint1_linear_624_7201)" mask="url(#path-2-inside-1_624_7201)"/>
</mask>
<g mask="url(#mask0_624_7201)">
<rect x="-28.9067" y="-0.960938" width="92.9841" height="275.098" fill="white" fill-opacity="0.9"/>
</g>
<defs>
<linearGradient id="paint0_linear_624_7201" x1="17.5702" y1="55.3828" x2="17.5702" y2="273.654" gradientUnits="userSpaceOnUse">
<stop stop-color="#CA80EF"/>
<stop offset="1" stop-color="#5BB5FF"/>
</linearGradient>
<linearGradient id="paint1_linear_624_7201" x1="17.5" y1="0" x2="17.5" y2="55.8627" gradientUnits="userSpaceOnUse">
<stop stop-color="#CA80EF"/>
<stop offset="1" stop-color="#5BB5FF"/>
</linearGradient>
</defs>
</svg>
