<svg width="60" height="567" viewBox="0 0 60 567" fill="none" xmlns="http://www.w3.org/2000/svg">
<mask id="mask0_642_10588" style="mask-type:alpha" maskUnits="userSpaceOnUse" x="0" y="0" width="60" height="567">
<path fill-rule="evenodd" clip-rule="evenodd" d="M21.176 27.5132C23.8192 24.9733 25.534 20.8854 25.534 16.2752C25.534 8.57072 20.7449 0 14.8373 0C8.92971 0 4.14065 8.57072 4.14065 16.2752C4.14065 21.383 6.24555 25.8496 9.3858 28.2802L2.07032 72.2028C1.49523 78.1999 0.276043 91.9212 0 98.8299V557.487C0.805125 560.526 4.55471 566.651 13.112 566.843C18.6071 567.479 29.6398 566.516 30.0151 557.613C30.8888 560.692 34.6519 566.653 43.0925 566.843C48.6134 567.482 59.7241 566.507 60.0001 557.487V98.8299C59.31 91.0736 57.8608 74.8895 57.5848 72.2028L51.1565 27.5132C53.7996 24.9733 55.5144 20.8854 55.5144 16.2752C55.5144 8.57072 50.7254 0 44.8178 0C38.9102 0 34.1211 8.57072 34.1211 16.2752C34.1211 21.383 36.226 25.8496 39.3663 28.2802L32.0508 72.2028C31.4839 78.1141 30.2913 91.5301 29.9929 98.5291C29.2928 90.6631 27.8768 74.8552 27.6043 72.2028L21.176 27.5132ZM39.3663 28.2802C40.9627 29.5159 42.8267 30.2253 44.8178 30.2253C47.1904 30.2253 49.3825 29.2179 51.1565 27.5132L51.0287 26.6249H39.642L39.3663 28.2802ZM29.9929 98.5291L30.0197 98.8299V557.487C30.0184 557.529 30.0168 557.571 30.0151 557.613C30.003 557.571 29.9915 557.529 29.9805 557.487V98.8299C29.9844 98.731 29.9886 98.6308 29.9929 98.5291ZM21.176 27.5132C19.4021 29.2179 17.2099 30.2253 14.8373 30.2253C12.8462 30.2253 10.9822 29.5159 9.3858 28.2802L9.6615 26.6249H21.0483L21.176 27.5132Z" fill="#D9D9D9"/>
</mask>
<g mask="url(#mask0_642_10588)">
<rect x="-70" y="-6" width="200" height="578" fill="url(#paint0_linear_642_10588)"/>
</g>
<defs>
<linearGradient id="paint0_linear_642_10588" x1="30" y1="-6" x2="30" y2="572" gradientUnits="userSpaceOnUse">
<stop stop-color="#B0F6FF"/>
<stop offset="0.375" stop-color="#9CA4FF"/>
<stop offset="1" stop-color="#7B1DFF"/>
</linearGradient>
</defs>
</svg>
