<svg width="44" height="81" viewBox="0 0 44 81" fill="none" xmlns="http://www.w3.org/2000/svg">
<mask id="mask0_624_7124" style="mask-type:alpha" maskUnits="userSpaceOnUse" x="0" y="-78" width="44" height="159">
<path d="M16.5074 -51.73L22.6789 -75.2026C22.8569 -75.8792 23.5644 -76.6828 23.8959 -77H27.0252C29.1809 -77 29.6039 -75.0968 29.5459 -74.1452V-70.3389L26.7644 -65.7924V-58.7083C27.2512 -58.2854 27.5467 -57.4043 27.6336 -57.0166V-52.8931C26.8687 -51.6243 26.2718 -49.4039 26.069 -48.4523V24.7143C26.069 29.3665 28.9665 30.1771 30.4152 30.0009C33.8226 29.4088 35.3119 26.8642 35.6306 25.6659V20.8022C36.8128 19.5334 38.2093 20.2736 38.7599 20.8022C42.4454 24.8623 40.8171 31.2345 39.5422 33.913C39.1359 34.7666 38.7097 35.4532 38.586 36.8735V46.1779C38.586 47.8132 42.4976 57.0331 42.7584 59.6059C44.2882 75.4234 38.1804 79.9417 34.9352 80.2237H11.9004C2.44308 79.3778 0.716197 66.408 1.03492 60.0288C1.56452 57.1518 2.13813 56.1905 2.4257 55.5881C3.6774 52.9659 5.96059 46.9533 6.94573 44.2747C8.47559 36.5775 5.51613 31.6079 5.29418 25.9831V13.5067C5.5028 9.86951 7.52522 9.17168 8.51036 9.27742C10.2488 9.19283 10.7414 11.0749 10.7704 12.0265V19.7449C10.8573 26.3003 15.3773 25.5602 16.942 24.7143C18.1937 24.0376 18.7384 22.5292 18.8543 21.8595V-46.7606C18.9934 -48.6215 17.8112 -49.6506 17.2027 -49.9326C16.4378 -50.3555 16.4204 -51.3071 16.5074 -51.73Z" fill="#5856D6" stroke="url(#paint0_linear_624_7124)" stroke-width="0.265026"/>
</mask>
<g mask="url(#mask0_624_7124)">
<rect x="-0.379883" y="-76.7227" width="44.4868" height="157.224" fill="white" fill-opacity="0.9"/>
</g>
<defs>
<linearGradient id="paint0_linear_624_7124" x1="22" y1="-77" x2="22" y2="80.2237" gradientUnits="userSpaceOnUse">
<stop stop-color="#CA80EF"/>
<stop offset="1" stop-color="#5BB5FF"/>
</linearGradient>
</defs>
</svg>
