<svg width="144" height="568" viewBox="0 0 144 568" fill="none" xmlns="http://www.w3.org/2000/svg">
<mask id="path-1-inside-1_642_10398" fill="white">
<path fill-rule="evenodd" clip-rule="evenodd" d="M63.4243 0H143.057V20.4367H63.4243V15.5043H0V4.93359H63.4243V0ZM63.4243 31.0078H0V41.5785H63.4243V46.5109H143.057V26.0742H63.4243V31.0078ZM0 57.082H63.4243V52.1484H143.057V72.5852H63.4243V67.6527H0V57.082ZM63.4243 83.1562H0V93.727H63.4243V98.6594H143.057V78.2227H63.4243V83.1562ZM0 109.23H63.4243V104.297H143.057V124.734H63.4243V119.801H0V109.23ZM63.4243 135.305H0V145.875H63.4243V150.812H143.057V130.375H63.4243V135.305ZM0 161.379H63.4243V156.445H143.057V176.882H63.4243V171.95H0V161.379ZM63.4243 187.453H0V198.024H63.4243V202.96H143.057V182.523H63.4243V187.453ZM0 213.531H63.4243V208.594H143.057V229.03H63.4243V224.102H0V213.531ZM63.4243 239.602H0V250.172H63.4243V255.109H143.057V234.672H63.4243V239.602ZM0 265.68H63.4243V260.742H143.057V281.179H63.4243V276.25H0V265.68ZM63.4243 291.75H0V302.321H63.4243V307.257H143.057V286.82H63.4243V291.75ZM0 317.828H63.4243V312.891H143.057V333.327H63.4243V328.399H0V317.828ZM63.4243 343.898H0V354.469H63.4243V359.405H143.057V338.969H63.4243V343.898ZM0 369.977H63.4243V365.043H143.057V385.48H63.4243V380.547H0V369.977ZM63.4243 396.047H0V406.618H63.4243V411.554H143.057V391.117H63.4243V396.047ZM0 422.125H63.4243V417.191H143.057V437.628H63.4243V432.696H0V422.125ZM63.4243 448.199H0V458.77H63.4243V463.702H143.057V443.266H63.4243V448.199ZM0 474.273H63.4243V469.34H143.057V489.777H63.4243V484.844H0V474.273ZM63.4243 500.348H0V510.918H63.4243V515.851H143.057V495.414H63.4243V500.348ZM0 526.422H63.4243V521.488H143.057V541.925H63.4243V536.993H0V526.422ZM63.4243 552.496H0V563.067H63.4243V567.999H143.057V547.562H63.4243V552.496Z"/>
</mask>
<path d="M143.057 0H144.057V-1H143.057V0ZM63.4243 0V-1H62.4243V0H63.4243ZM143.057 20.4367V21.4367H144.057V20.4367H143.057ZM63.4243 20.4367H62.4243V21.4367H63.4243V20.4367ZM63.4243 15.5043H64.4243V14.5043H63.4243V15.5043ZM0 15.5043H-1V16.5043H0V15.5043ZM0 4.93359V3.93359H-1V4.93359H0ZM63.4243 4.93359V5.93359H64.4243V4.93359H63.4243ZM0 31.0078V30.0078H-1V31.0078H0ZM63.4243 31.0078V32.0078H64.4243V31.0078H63.4243ZM0 41.5785H-1V42.5785H0V41.5785ZM63.4243 41.5785H64.4243V40.5785H63.4243V41.5785ZM63.4243 46.5109H62.4243V47.5109H63.4243V46.5109ZM143.057 46.5109V47.5109H144.057V46.5109H143.057ZM143.057 26.0742H144.057V25.0742H143.057V26.0742ZM63.4243 26.0742V25.0742H62.4243V26.0742H63.4243ZM63.4243 57.082V58.082H64.4243V57.082H63.4243ZM0 57.082V56.082H-1V57.082H0ZM63.4243 52.1484V51.1484H62.4243V52.1484H63.4243ZM143.057 52.1484H144.057V51.1484H143.057V52.1484ZM143.057 72.5852V73.5852H144.057V72.5852H143.057ZM63.4243 72.5852H62.4243V73.5852H63.4243V72.5852ZM63.4243 67.6527H64.4243V66.6527H63.4243V67.6527ZM0 67.6527H-1V68.6527H0V67.6527ZM0 83.1562V82.1562H-1V83.1562H0ZM63.4243 83.1562V84.1562H64.4243V83.1562H63.4243ZM0 93.727H-1V94.727H0V93.727ZM63.4243 93.727H64.4243V92.727H63.4243V93.727ZM63.4243 98.6594H62.4243V99.6594H63.4243V98.6594ZM143.057 98.6594V99.6594H144.057V98.6594H143.057ZM143.057 78.2227H144.057V77.2227H143.057V78.2227ZM63.4243 78.2227V77.2227H62.4243V78.2227H63.4243ZM63.4243 109.23V110.23H64.4243V109.23H63.4243ZM0 109.23V108.23H-1V109.23H0ZM63.4243 104.297V103.297H62.4243V104.297H63.4243ZM143.057 104.297H144.057V103.297H143.057V104.297ZM143.057 124.734V125.734H144.057V124.734H143.057ZM63.4243 124.734H62.4243V125.734H63.4243V124.734ZM63.4243 119.801H64.4243V118.801H63.4243V119.801ZM0 119.801H-1V120.801H0V119.801ZM0 135.305V134.305H-1V135.305H0ZM63.4243 135.305V136.305H64.4243V135.305H63.4243ZM0 145.875H-1V146.875H0V145.875ZM63.4243 145.875H64.4243V144.875H63.4243V145.875ZM63.4243 150.812H62.4243V151.812H63.4243V150.812ZM143.057 150.812V151.812H144.057V150.812H143.057ZM143.057 130.375H144.057V129.375H143.057V130.375ZM63.4243 130.375V129.375H62.4243V130.375H63.4243ZM63.4243 161.379V162.379H64.4243V161.379H63.4243ZM0 161.379V160.379H-1V161.379H0ZM63.4243 156.445V155.445H62.4243V156.445H63.4243ZM143.057 156.445H144.057V155.445H143.057V156.445ZM143.057 176.882V177.882H144.057V176.882H143.057ZM63.4243 176.882H62.4243V177.882H63.4243V176.882ZM63.4243 171.95H64.4243V170.95H63.4243V171.95ZM0 171.95H-1V172.95H0V171.95ZM0 187.453V186.453H-1V187.453H0ZM63.4243 187.453V188.453H64.4243V187.453H63.4243ZM0 198.024H-1V199.024H0V198.024ZM63.4243 198.024H64.4243V197.024H63.4243V198.024ZM63.4243 202.96H62.4243V203.96H63.4243V202.96ZM143.057 202.96V203.96H144.057V202.96H143.057ZM143.057 182.523H144.057V181.523H143.057V182.523ZM63.4243 182.523V181.523H62.4243V182.523H63.4243ZM63.4243 213.531V214.531H64.4243V213.531H63.4243ZM0 213.531V212.531H-1V213.531H0ZM63.4243 208.594V207.594H62.4243V208.594H63.4243ZM143.057 208.594H144.057V207.594H143.057V208.594ZM143.057 229.03V230.03H144.057V229.03H143.057ZM63.4243 229.03H62.4243V230.03H63.4243V229.03ZM63.4243 224.102H64.4243V223.102H63.4243V224.102ZM0 224.102H-1V225.102H0V224.102ZM0 239.602V238.602H-1V239.602H0ZM63.4243 239.602V240.602H64.4243V239.602H63.4243ZM0 250.172H-1V251.172H0V250.172ZM63.4243 250.172H64.4243V249.172H63.4243V250.172ZM63.4243 255.109H62.4243V256.109H63.4243V255.109ZM143.057 255.109V256.109H144.057V255.109H143.057ZM143.057 234.672H144.057V233.672H143.057V234.672ZM63.4243 234.672V233.672H62.4243V234.672H63.4243ZM63.4243 265.68V266.68H64.4243V265.68H63.4243ZM0 265.68V264.68H-1V265.68H0ZM63.4243 260.742V259.742H62.4243V260.742H63.4243ZM143.057 260.742H144.057V259.742H143.057V260.742ZM143.057 281.179V282.179H144.057V281.179H143.057ZM63.4243 281.179H62.4243V282.179H63.4243V281.179ZM63.4243 276.25H64.4243V275.25H63.4243V276.25ZM0 276.25H-1V277.25H0V276.25ZM0 291.75V290.75H-1V291.75H0ZM63.4243 291.75V292.75H64.4243V291.75H63.4243ZM0 302.321H-1V303.321H0V302.321ZM63.4243 302.321H64.4243V301.321H63.4243V302.321ZM63.4243 307.257H62.4243V308.257H63.4243V307.257ZM143.057 307.257V308.257H144.057V307.257H143.057ZM143.057 286.82H144.057V285.82H143.057V286.82ZM63.4243 286.82V285.82H62.4243V286.82H63.4243ZM63.4243 317.828V318.828H64.4243V317.828H63.4243ZM0 317.828V316.828H-1V317.828H0ZM63.4243 312.891V311.891H62.4243V312.891H63.4243ZM143.057 312.891H144.057V311.891H143.057V312.891ZM143.057 333.327V334.327H144.057V333.327H143.057ZM63.4243 333.327H62.4243V334.327H63.4243V333.327ZM63.4243 328.399H64.4243V327.399H63.4243V328.399ZM0 328.399H-1V329.399H0V328.399ZM0 343.898V342.898H-1V343.898H0ZM63.4243 343.898V344.898H64.4243V343.898H63.4243ZM0 354.469H-1V355.469H0V354.469ZM63.4243 354.469H64.4243V353.469H63.4243V354.469ZM63.4243 359.405H62.4243V360.405H63.4243V359.405ZM143.057 359.405V360.405H144.057V359.405H143.057ZM143.057 338.969H144.057V337.969H143.057V338.969ZM63.4243 338.969V337.969H62.4243V338.969H63.4243ZM63.4243 369.977V370.977H64.4243V369.977H63.4243ZM0 369.977V368.977H-1V369.977H0ZM63.4243 365.043V364.043H62.4243V365.043H63.4243ZM143.057 365.043H144.057V364.043H143.057V365.043ZM143.057 385.48V386.48H144.057V385.48H143.057ZM63.4243 385.48H62.4243V386.48H63.4243V385.48ZM63.4243 380.547H64.4243V379.547H63.4243V380.547ZM0 380.547H-1V381.547H0V380.547ZM0 396.047V395.047H-1V396.047H0ZM63.4243 396.047V397.047H64.4243V396.047H63.4243ZM0 406.618H-1V407.618H0V406.618ZM63.4243 406.618H64.4243V405.618H63.4243V406.618ZM63.4243 411.554H62.4243V412.554H63.4243V411.554ZM143.057 411.554V412.554H144.057V411.554H143.057ZM143.057 391.117H144.057V390.117H143.057V391.117ZM63.4243 391.117V390.117H62.4243V391.117H63.4243ZM63.4243 422.125V423.125H64.4243V422.125H63.4243ZM0 422.125V421.125H-1V422.125H0ZM63.4243 417.191V416.191H62.4243V417.191H63.4243ZM143.057 417.191H144.057V416.191H143.057V417.191ZM143.057 437.628V438.628H144.057V437.628H143.057ZM63.4243 437.628H62.4243V438.628H63.4243V437.628ZM63.4243 432.696H64.4243V431.696H63.4243V432.696ZM0 432.696H-1V433.696H0V432.696ZM0 448.199V447.199H-1V448.199H0ZM63.4243 448.199V449.199H64.4243V448.199H63.4243ZM0 458.77H-1V459.77H0V458.77ZM63.4243 458.77H64.4243V457.77H63.4243V458.77ZM63.4243 463.702H62.4243V464.702H63.4243V463.702ZM143.057 463.702V464.702H144.057V463.702H143.057ZM143.057 443.266H144.057V442.266H143.057V443.266ZM63.4243 443.266V442.266H62.4243V443.266H63.4243ZM63.4243 474.273V475.273H64.4243V474.273H63.4243ZM0 474.273V473.273H-1V474.273H0ZM63.4243 469.34V468.34H62.4243V469.34H63.4243ZM143.057 469.34H144.057V468.34H143.057V469.34ZM143.057 489.777V490.777H144.057V489.777H143.057ZM63.4243 489.777H62.4243V490.777H63.4243V489.777ZM63.4243 484.844H64.4243V483.844H63.4243V484.844ZM0 484.844H-1V485.844H0V484.844ZM0 500.348V499.348H-1V500.348H0ZM63.4243 500.348V501.348H64.4243V500.348H63.4243ZM0 510.918H-1V511.918H0V510.918ZM63.4243 510.918H64.4243V509.918H63.4243V510.918ZM63.4243 515.851H62.4243V516.851H63.4243V515.851ZM143.057 515.851V516.851H144.057V515.851H143.057ZM143.057 495.414H144.057V494.414H143.057V495.414ZM63.4243 495.414V494.414H62.4243V495.414H63.4243ZM63.4243 526.422V527.422H64.4243V526.422H63.4243ZM0 526.422V525.422H-1V526.422H0ZM63.4243 521.488V520.488H62.4243V521.488H63.4243ZM143.057 521.488H144.057V520.488H143.057V521.488ZM143.057 541.925V542.925H144.057V541.925H143.057ZM63.4243 541.925H62.4243V542.925H63.4243V541.925ZM63.4243 536.993H64.4243V535.993H63.4243V536.993ZM0 536.993H-1V537.993H0V536.993ZM0 552.496V551.496H-1V552.496H0ZM63.4243 552.496V553.496H64.4243V552.496H63.4243ZM0 563.067H-1V564.067H0V563.067ZM63.4243 563.067H64.4243V562.067H63.4243V563.067ZM63.4243 567.999H62.4243V568.999H63.4243V567.999ZM143.057 567.999V568.999H144.057V567.999H143.057ZM143.057 547.562H144.057V546.562H143.057V547.562ZM63.4243 547.562V546.562H62.4243V547.562H63.4243ZM143.057 -1H63.4243V1H143.057V-1ZM144.057 20.4367V0H142.057V20.4367H144.057ZM63.4243 21.4367H143.057V19.4367H63.4243V21.4367ZM62.4243 15.5043V20.4367H64.4243V15.5043H62.4243ZM0 16.5043H63.4243V14.5043H0V16.5043ZM-1 4.93359V15.5043H1V4.93359H-1ZM63.4243 3.93359H0V5.93359H63.4243V3.93359ZM62.4243 0V4.93359H64.4243V0H62.4243ZM0 32.0078H63.4243V30.0078H0V32.0078ZM1 41.5785V31.0078H-1V41.5785H1ZM63.4243 40.5785H0V42.5785H63.4243V40.5785ZM64.4243 46.5109V41.5785H62.4243V46.5109H64.4243ZM143.057 45.5109H63.4243V47.5109H143.057V45.5109ZM142.057 26.0742V46.5109H144.057V26.0742H142.057ZM63.4243 27.0742H143.057V25.0742H63.4243V27.0742ZM64.4243 31.0078V26.0742H62.4243V31.0078H64.4243ZM63.4243 56.082H0V58.082H63.4243V56.082ZM62.4243 52.1484V57.082H64.4243V52.1484H62.4243ZM143.057 51.1484H63.4243V53.1484H143.057V51.1484ZM144.057 72.5852V52.1484H142.057V72.5852H144.057ZM63.4243 73.5852H143.057V71.5852H63.4243V73.5852ZM62.4243 67.6527V72.5852H64.4243V67.6527H62.4243ZM0 68.6527H63.4243V66.6527H0V68.6527ZM-1 57.082V67.6527H1V57.082H-1ZM0 84.1562H63.4243V82.1562H0V84.1562ZM1 93.727V83.1562H-1V93.727H1ZM63.4243 92.727H0V94.727H63.4243V92.727ZM64.4243 98.6594V93.727H62.4243V98.6594H64.4243ZM143.057 97.6594H63.4243V99.6594H143.057V97.6594ZM142.057 78.2227V98.6594H144.057V78.2227H142.057ZM63.4243 79.2227H143.057V77.2227H63.4243V79.2227ZM64.4243 83.1562V78.2227H62.4243V83.1562H64.4243ZM63.4243 108.23H0V110.23H63.4243V108.23ZM62.4243 104.297V109.23H64.4243V104.297H62.4243ZM143.057 103.297H63.4243V105.297H143.057V103.297ZM144.057 124.734V104.297H142.057V124.734H144.057ZM63.4243 125.734H143.057V123.734H63.4243V125.734ZM62.4243 119.801V124.734H64.4243V119.801H62.4243ZM0 120.801H63.4243V118.801H0V120.801ZM-1 109.23V119.801H1V109.23H-1ZM0 136.305H63.4243V134.305H0V136.305ZM1 145.875V135.305H-1V145.875H1ZM63.4243 144.875H0V146.875H63.4243V144.875ZM64.4243 150.812V145.875H62.4243V150.812H64.4243ZM143.057 149.812H63.4243V151.812H143.057V149.812ZM142.057 130.375V150.812H144.057V130.375H142.057ZM63.4243 131.375H143.057V129.375H63.4243V131.375ZM64.4243 135.305V130.375H62.4243V135.305H64.4243ZM63.4243 160.379H0V162.379H63.4243V160.379ZM62.4243 156.445V161.379H64.4243V156.445H62.4243ZM143.057 155.445H63.4243V157.445H143.057V155.445ZM144.057 176.882V156.445H142.057V176.882H144.057ZM63.4243 177.882H143.057V175.882H63.4243V177.882ZM62.4243 171.95V176.882H64.4243V171.95H62.4243ZM0 172.95H63.4243V170.95H0V172.95ZM-1 161.379V171.95H1V161.379H-1ZM0 188.453H63.4243V186.453H0V188.453ZM1 198.024V187.453H-1V198.024H1ZM63.4243 197.024H0V199.024H63.4243V197.024ZM64.4243 202.96V198.024H62.4243V202.96H64.4243ZM143.057 201.96H63.4243V203.96H143.057V201.96ZM142.057 182.523V202.96H144.057V182.523H142.057ZM63.4243 183.523H143.057V181.523H63.4243V183.523ZM64.4243 187.453V182.523H62.4243V187.453H64.4243ZM63.4243 212.531H0V214.531H63.4243V212.531ZM62.4243 208.594V213.531H64.4243V208.594H62.4243ZM143.057 207.594H63.4243V209.594H143.057V207.594ZM144.057 229.03V208.594H142.057V229.03H144.057ZM63.4243 230.03H143.057V228.03H63.4243V230.03ZM62.4243 224.102V229.03H64.4243V224.102H62.4243ZM0 225.102H63.4243V223.102H0V225.102ZM-1 213.531V224.102H1V213.531H-1ZM0 240.602H63.4243V238.602H0V240.602ZM1 250.172V239.602H-1V250.172H1ZM63.4243 249.172H0V251.172H63.4243V249.172ZM64.4243 255.109V250.172H62.4243V255.109H64.4243ZM143.057 254.109H63.4243V256.109H143.057V254.109ZM142.057 234.672V255.109H144.057V234.672H142.057ZM63.4243 235.672H143.057V233.672H63.4243V235.672ZM64.4243 239.602V234.672H62.4243V239.602H64.4243ZM63.4243 264.68H0V266.68H63.4243V264.68ZM62.4243 260.742V265.68H64.4243V260.742H62.4243ZM143.057 259.742H63.4243V261.742H143.057V259.742ZM144.057 281.179V260.742H142.057V281.179H144.057ZM63.4243 282.179H143.057V280.179H63.4243V282.179ZM62.4243 276.25V281.179H64.4243V276.25H62.4243ZM0 277.25H63.4243V275.25H0V277.25ZM-1 265.68V276.25H1V265.68H-1ZM0 292.75H63.4243V290.75H0V292.75ZM1 302.321V291.75H-1V302.321H1ZM63.4243 301.321H0V303.321H63.4243V301.321ZM64.4243 307.257V302.321H62.4243V307.257H64.4243ZM143.057 306.257H63.4243V308.257H143.057V306.257ZM142.057 286.82V307.257H144.057V286.82H142.057ZM63.4243 287.82H143.057V285.82H63.4243V287.82ZM64.4243 291.75V286.82H62.4243V291.75H64.4243ZM63.4243 316.828H0V318.828H63.4243V316.828ZM62.4243 312.891V317.828H64.4243V312.891H62.4243ZM143.057 311.891H63.4243V313.891H143.057V311.891ZM144.057 333.327V312.891H142.057V333.327H144.057ZM63.4243 334.327H143.057V332.327H63.4243V334.327ZM62.4243 328.399V333.327H64.4243V328.399H62.4243ZM0 329.399H63.4243V327.399H0V329.399ZM-1 317.828V328.399H1V317.828H-1ZM0 344.898H63.4243V342.898H0V344.898ZM1 354.469V343.898H-1V354.469H1ZM63.4243 353.469H0V355.469H63.4243V353.469ZM64.4243 359.405V354.469H62.4243V359.405H64.4243ZM143.057 358.405H63.4243V360.405H143.057V358.405ZM142.057 338.969V359.405H144.057V338.969H142.057ZM63.4243 339.969H143.057V337.969H63.4243V339.969ZM64.4243 343.898V338.969H62.4243V343.898H64.4243ZM63.4243 368.977H0V370.977H63.4243V368.977ZM62.4243 365.043V369.977H64.4243V365.043H62.4243ZM143.057 364.043H63.4243V366.043H143.057V364.043ZM144.057 385.48V365.043H142.057V385.48H144.057ZM63.4243 386.48H143.057V384.48H63.4243V386.48ZM62.4243 380.547V385.48H64.4243V380.547H62.4243ZM0 381.547H63.4243V379.547H0V381.547ZM-1 369.977V380.547H1V369.977H-1ZM0 397.047H63.4243V395.047H0V397.047ZM1 406.618V396.047H-1V406.618H1ZM63.4243 405.618H0V407.618H63.4243V405.618ZM64.4243 411.554V406.618H62.4243V411.554H64.4243ZM143.057 410.554H63.4243V412.554H143.057V410.554ZM142.057 391.117V411.554H144.057V391.117H142.057ZM63.4243 392.117H143.057V390.117H63.4243V392.117ZM64.4243 396.047V391.117H62.4243V396.047H64.4243ZM63.4243 421.125H0V423.125H63.4243V421.125ZM62.4243 417.191V422.125H64.4243V417.191H62.4243ZM143.057 416.191H63.4243V418.191H143.057V416.191ZM144.057 437.628V417.191H142.057V437.628H144.057ZM63.4243 438.628H143.057V436.628H63.4243V438.628ZM62.4243 432.696V437.628H64.4243V432.696H62.4243ZM0 433.696H63.4243V431.696H0V433.696ZM-1 422.125V432.696H1V422.125H-1ZM0 449.199H63.4243V447.199H0V449.199ZM1 458.77V448.199H-1V458.77H1ZM63.4243 457.77H0V459.77H63.4243V457.77ZM64.4243 463.702V458.77H62.4243V463.702H64.4243ZM143.057 462.702H63.4243V464.702H143.057V462.702ZM142.057 443.266V463.702H144.057V443.266H142.057ZM63.4243 444.266H143.057V442.266H63.4243V444.266ZM64.4243 448.199V443.266H62.4243V448.199H64.4243ZM63.4243 473.273H0V475.273H63.4243V473.273ZM62.4243 469.34V474.273H64.4243V469.34H62.4243ZM143.057 468.34H63.4243V470.34H143.057V468.34ZM144.057 489.777V469.34H142.057V489.777H144.057ZM63.4243 490.777H143.057V488.777H63.4243V490.777ZM62.4243 484.844V489.777H64.4243V484.844H62.4243ZM0 485.844H63.4243V483.844H0V485.844ZM-1 474.273V484.844H1V474.273H-1ZM0 501.348H63.4243V499.348H0V501.348ZM1 510.918V500.348H-1V510.918H1ZM63.4243 509.918H0V511.918H63.4243V509.918ZM64.4243 515.851V510.918H62.4243V515.851H64.4243ZM143.057 514.851H63.4243V516.851H143.057V514.851ZM142.057 495.414V515.851H144.057V495.414H142.057ZM63.4243 496.414H143.057V494.414H63.4243V496.414ZM64.4243 500.348V495.414H62.4243V500.348H64.4243ZM63.4243 525.422H0V527.422H63.4243V525.422ZM62.4243 521.488V526.422H64.4243V521.488H62.4243ZM143.057 520.488H63.4243V522.488H143.057V520.488ZM144.057 541.925V521.488H142.057V541.925H144.057ZM63.4243 542.925H143.057V540.925H63.4243V542.925ZM62.4243 536.993V541.925H64.4243V536.993H62.4243ZM0 537.993H63.4243V535.993H0V537.993ZM-1 526.422V536.993H1V526.422H-1ZM0 553.496H63.4243V551.496H0V553.496ZM1 563.067V552.496H-1V563.067H1ZM63.4243 562.067H0V564.067H63.4243V562.067ZM64.4243 567.999V563.067H62.4243V567.999H64.4243ZM143.057 566.999H63.4243V568.999H143.057V566.999ZM142.057 547.562V567.999H144.057V547.562H142.057ZM63.4243 548.562H143.057V546.562H63.4243V548.562ZM64.4243 552.496V547.562H62.4243V552.496H64.4243Z" fill="url(#paint0_linear_642_10398)" mask="url(#path-1-inside-1_642_10398)"/>
<defs>
<linearGradient id="paint0_linear_642_10398" x1="71.5285" y1="0" x2="71.5285" y2="567.999" gradientUnits="userSpaceOnUse">
<stop stop-color="#CA80EF"/>
<stop offset="1" stop-color="#5BB5FF"/>
</linearGradient>
</defs>
</svg>
