<svg width="154" height="569" viewBox="0 0 154 569" fill="none" xmlns="http://www.w3.org/2000/svg">
<path d="M57.9005 92.1318L80.2923 7.48218C81.8391 1.99649 82.3403 1 84.7077 1H96.0613C103.883 1 105.418 7.86348 105.207 11.2952V25.0222L95.1152 41.4183V66.9657C95.1152 69.7575 97.8796 70.2557 98.269 73.0666V86.6977V87.9375C95.4936 92.5131 92.5922 97.8116 92.5922 103.952V367.815C92.5922 384.592 103.105 387.516 108.361 386.88C120.724 384.745 123.444 379.166 125.449 371.194L126.452 363.721L127.284 353.707C128.958 346.78 136.64 351.8 138.637 353.707C152.009 368.349 146.617 388.44 141.991 398.099C140.517 401.178 138.007 413.432 138.007 417.033V445.22C138.007 452.408 141.49 473.496 146.503 486.288C165.05 533.621 140.174 567.502 118.432 568H41.1854C6.87229 564.95 -1.87223 516.681 1.76316 495.171C2.74538 489.359 5.60577 480.489 6.64914 478.316C11.5988 468.01 19.1808 450.913 23.2089 438.356C28.7595 410.597 17.2167 392.12 17.2167 372.391V327.397C17.9736 314.28 25.3114 311.763 28.8857 312.145C35.1932 311.84 36.9804 318.627 37.0855 322.059V349.894C37.4009 373.535 53.358 369.852 59.4773 367.815C64.2948 366.212 66.4156 360.731 66.4156 357.52V110.053C66.4156 103.14 62.6311 99.6308 60.4235 98.614C57.6482 97.0888 57.5851 93.657 57.9005 92.1318Z" stroke="url(#paint0_linear_642_10450)"/>
<defs>
<linearGradient id="paint0_linear_642_10450" x1="77.8291" y1="1" x2="77.8291" y2="568" gradientUnits="userSpaceOnUse">
<stop stop-color="#CA80EF"/>
<stop offset="1" stop-color="#5BB5FF"/>
</linearGradient>
</defs>
</svg>
