<svg width="13" height="78" viewBox="0 0 13 78" fill="none" xmlns="http://www.w3.org/2000/svg">
<mask id="mask0_624_7138" style="mask-type:alpha" maskUnits="userSpaceOnUse" x="0" y="0" width="13" height="116">
<mask id="path-1-inside-1_624_7138" fill="white">
<path fill-rule="evenodd" clip-rule="evenodd" d="M4.31718 5.6188C4.85597 5.10007 5.20551 4.26527 5.20551 3.3238C5.20551 1.75036 4.22919 0 3.02482 0C1.82046 0 0.844135 1.75036 0.844135 3.3238C0.844135 4.36699 1.27329 5.27923 1.91354 5.7756L0.422175 14.7456C0.304934 15.9703 0.0563824 18.7726 0.000106488 20.1835V113.853C0.164244 114.473 0.928658 115.724 2.67321 115.764C3.79476 115.894 6.04788 115.696 6.11943 113.872C6.29418 114.499 7.06071 115.725 8.78725 115.764C9.91277 115.894 12.1779 115.695 12.2341 113.853V20.1835C12.0935 18.5995 11.798 15.2943 11.7417 14.7456L10.4312 5.61879C10.97 5.10007 11.3196 4.26527 11.3196 3.3238C11.3196 1.75036 10.3432 0 9.13887 0C7.9345 0 6.95818 1.75036 6.95818 3.3238C6.95818 4.36699 7.38734 5.27923 8.02758 5.7756L6.53622 14.7456C6.42023 15.9572 6.17575 18.7126 6.11603 20.1376C5.97379 18.5365 5.68343 15.289 5.62769 14.7456L4.31718 5.6188Z"/>
</mask>
<path fill-rule="evenodd" clip-rule="evenodd" d="M4.31718 5.6188C4.85597 5.10007 5.20551 4.26527 5.20551 3.3238C5.20551 1.75036 4.22919 0 3.02482 0C1.82046 0 0.844135 1.75036 0.844135 3.3238C0.844135 4.36699 1.27329 5.27923 1.91354 5.7756L0.422175 14.7456C0.304934 15.9703 0.0563824 18.7726 0.000106488 20.1835V113.853C0.164244 114.473 0.928658 115.724 2.67321 115.764C3.79476 115.894 6.04788 115.696 6.11943 113.872C6.29418 114.499 7.06071 115.725 8.78725 115.764C9.91277 115.894 12.1779 115.695 12.2341 113.853V20.1835C12.0935 18.5995 11.798 15.2943 11.7417 14.7456L10.4312 5.61879C10.97 5.10007 11.3196 4.26527 11.3196 3.3238C11.3196 1.75036 10.3432 0 9.13887 0C7.9345 0 6.95818 1.75036 6.95818 3.3238C6.95818 4.36699 7.38734 5.27923 8.02758 5.7756L6.53622 14.7456C6.42023 15.9572 6.17575 18.7126 6.11603 20.1376C5.97379 18.5365 5.68343 15.289 5.62769 14.7456L4.31718 5.6188Z" fill="#5856D6"/>
<path d="M4.31718 5.6188L3.893 5.1782L3.66725 5.39554L3.71179 5.70572L4.31718 5.6188ZM1.91354 5.7756L2.51685 5.87591L2.57671 5.51588L2.28827 5.29225L1.91354 5.7756ZM0.422175 14.7456L-0.181142 14.6453L-0.18462 14.6662L-0.186641 14.6873L0.422175 14.7456ZM0.000106488 20.1835L-0.611007 20.1591L-0.611493 20.1713V20.1835H0.000106488ZM0.000106488 113.853H-0.611493V113.932L-0.591159 114.009L0.000106488 113.853ZM2.67321 115.764L2.74373 115.156L2.71543 115.153L2.68695 115.152L2.67321 115.764ZM6.11943 113.872L6.70856 113.708L5.5083 113.848L6.11943 113.872ZM8.78725 115.764L8.85777 115.156L8.82947 115.153L8.80099 115.152L8.78725 115.764ZM12.2341 113.853L12.8455 113.872L12.8457 113.862V113.853H12.2341ZM12.2341 20.1835H12.8457V20.1564L12.8434 20.1294L12.2341 20.1835ZM11.7417 14.7456L12.3501 14.6832L12.3489 14.6709L12.3471 14.6587L11.7417 14.7456ZM10.4312 5.61879L10.007 5.1782L9.7813 5.39554L9.82584 5.70572L10.4312 5.61879ZM8.02758 5.7756L8.6309 5.87591L8.69075 5.51588L8.40232 5.29225L8.02758 5.7756ZM6.53622 14.7456L5.9329 14.6453L5.92942 14.6662L5.9274 14.6873L6.53622 14.7456ZM6.11603 20.1376L5.50683 20.1917L6.72709 20.1632L6.11603 20.1376ZM5.62769 14.7456L6.2361 14.6832L6.23484 14.6709L6.23308 14.6587L5.62769 14.7456ZM4.59392 3.3238C4.59392 4.12236 4.29621 4.79 3.893 5.1782L4.74137 6.05939C5.41573 5.41014 5.81711 4.40818 5.81711 3.3238H4.59392ZM3.02482 0.611599C3.3168 0.611599 3.69973 0.835969 4.04751 1.39495C4.38208 1.93269 4.59392 2.6518 4.59392 3.3238H5.81711C5.81711 2.42236 5.54078 1.47957 5.0861 0.748768C4.64463 0.0392095 3.93721 -0.611599 3.02482 -0.611599V0.611599ZM1.45573 3.3238C1.45573 2.6518 1.66757 1.93269 2.00214 1.39495C2.34992 0.835969 2.73285 0.611599 3.02482 0.611599V-0.611599C2.11244 -0.611599 1.40502 0.0392096 0.963551 0.748768C0.508865 1.47957 0.232535 2.42236 0.232535 3.3238H1.45573ZM2.28827 5.29225C1.82271 4.93131 1.45573 4.21237 1.45573 3.3238H0.232535C0.232535 4.52161 0.723872 5.62714 1.5388 6.25895L2.28827 5.29225ZM1.02549 14.8459L2.51685 5.87591L1.31022 5.67529L-0.181142 14.6453L1.02549 14.8459ZM0.61122 20.2079C0.666711 18.8166 0.913519 16.031 1.03099 14.8039L-0.186641 14.6873C-0.303651 15.9096 -0.553946 18.7285 -0.611007 20.1591L0.61122 20.2079ZM0.611706 113.853V20.1835H-0.611493V113.853H0.611706ZM2.68695 115.152C1.28855 115.121 0.70673 114.133 0.591372 113.697L-0.591159 114.009C-0.378241 114.814 0.568769 116.328 2.65947 116.375L2.68695 115.152ZM5.5083 113.848C5.49574 114.168 5.39239 114.388 5.24819 114.553C5.09594 114.727 4.87078 114.87 4.57963 114.977C3.9861 115.194 3.24608 115.214 2.74373 115.156L2.60269 116.371C3.22189 116.443 4.1692 116.43 5.00051 116.125C5.42178 115.971 5.84341 115.73 6.16879 115.358C6.50222 114.977 6.70734 114.488 6.73056 113.896L5.5083 113.848ZM8.80099 115.152C7.41718 115.121 6.8328 114.154 6.70856 113.708L5.5303 114.037C5.75555 114.845 6.70424 116.329 8.77352 116.375L8.80099 115.152ZM11.6228 113.834C11.6129 114.159 11.5103 114.381 11.367 114.547C11.2158 114.723 10.9912 114.867 10.6998 114.974C10.1054 115.194 9.3621 115.215 8.85777 115.156L8.71674 116.371C9.33792 116.443 10.2899 116.43 11.1236 116.122C11.5461 115.966 11.9687 115.723 12.2932 115.346C12.6257 114.961 12.8273 114.468 12.8455 113.872L11.6228 113.834ZM11.6226 20.1835V113.853H12.8457V20.1835H11.6226ZM11.1333 14.808C11.189 15.3512 11.4839 18.65 11.6249 20.2376L12.8434 20.1294C12.703 18.5489 12.407 15.2373 12.3501 14.6832L11.1333 14.808ZM9.82584 5.70572L11.1363 14.8325L12.3471 14.6587L11.0366 5.53187L9.82584 5.70572ZM10.708 3.3238C10.708 4.12236 10.4103 4.79 10.007 5.1782L10.8554 6.05939C11.5298 5.41014 11.9312 4.40818 11.9312 3.3238H10.708ZM9.13887 0.611599C9.43084 0.611599 9.81377 0.835969 10.1616 1.39495C10.4961 1.93269 10.708 2.6518 10.708 3.3238H11.9312C11.9312 2.42236 11.6548 1.47957 11.2001 0.748768C10.7587 0.0392096 10.0513 -0.611599 9.13887 -0.611599V0.611599ZM7.56978 3.3238C7.56978 2.6518 7.78161 1.93269 8.11618 1.39495C8.46396 0.835969 8.84689 0.611599 9.13887 0.611599V-0.611599C8.22648 -0.611599 7.51906 0.0392095 7.07759 0.748768C6.62291 1.47957 6.34658 2.42236 6.34658 3.3238H7.56978ZM8.40232 5.29225C7.93676 4.93131 7.56978 4.21237 7.56978 3.3238H6.34658C6.34658 4.52161 6.83791 5.62714 7.65284 6.25895L8.40232 5.29225ZM7.13954 14.8459L8.6309 5.87591L7.42426 5.67529L5.9329 14.6453L7.13954 14.8459ZM6.72709 20.1632C6.78602 18.757 7.02887 16.0174 7.14503 14.8039L5.9274 14.6873C5.8116 15.897 5.56547 18.6682 5.50497 20.112L6.72709 20.1632ZM5.01929 14.808C5.07447 15.346 5.36427 18.5871 5.50683 20.1917L6.72523 20.0835C6.5833 18.4859 6.29239 15.232 6.2361 14.6832L5.01929 14.808ZM3.71179 5.70572L5.0223 14.8325L6.23308 14.6587L4.92257 5.53187L3.71179 5.70572Z" fill="url(#paint0_linear_624_7138)" mask="url(#path-1-inside-1_624_7138)"/>
</mask>
<g mask="url(#mask0_624_7138)">
<rect x="-9.78516" y="-0.00195312" width="32.007" height="116" fill="white" fill-opacity="0.9"/>
</g>
<defs>
<linearGradient id="paint0_linear_624_7138" x1="6.11696" y1="0" x2="6.11696" y2="115.796" gradientUnits="userSpaceOnUse">
<stop stop-color="#CA80EF"/>
<stop offset="1" stop-color="#5BB5FF"/>
</linearGradient>
</defs>
</svg>
