<svg width="73" height="569" viewBox="0 0 73 569" fill="none" xmlns="http://www.w3.org/2000/svg">
<path d="M24.5723 568V115.746H48.3766V568H24.5723Z" stroke="url(#paint0_linear_642_10443)"/>
<mask id="path-2-inside-1_642_10443" fill="white">
<path fill-rule="evenodd" clip-rule="evenodd" d="M17.0934 0C7.65296 0 0 7.65298 0 17.0934V98.6531C0 108.093 7.65297 115.746 17.0934 115.746H55.5534C64.9939 115.746 72.6468 108.093 72.6468 98.6531V73.5867H44.5371V65.1548H72.6468V59.0225H44.5371V50.5906H72.6468V44.4583H44.5371V36.0264H72.6468V17.0934C72.6468 7.65296 64.9938 0 55.5534 0H17.0934Z"/>
</mask>
<path d="M72.6468 73.5867H73.6468V72.5867H72.6468V73.5867ZM44.5371 73.5867H43.5371V74.5867H44.5371V73.5867ZM44.5371 65.1548V64.1548H43.5371V65.1548H44.5371ZM72.6468 65.1548V66.1548H73.6468V65.1548H72.6468ZM72.6468 59.0225H73.6468V58.0225H72.6468V59.0225ZM44.5371 59.0225H43.5371V60.0225H44.5371V59.0225ZM44.5371 50.5906V49.5906H43.5371V50.5906H44.5371ZM72.6468 50.5906V51.5906H73.6468V50.5906H72.6468ZM72.6468 44.4583H73.6468V43.4583H72.6468V44.4583ZM44.5371 44.4583H43.5371V45.4583H44.5371V44.4583ZM44.5371 36.0264V35.0264H43.5371V36.0264H44.5371ZM72.6468 36.0264V37.0264H73.6468V36.0264H72.6468ZM1 17.0934C1 8.20526 8.20525 1 17.0934 1V-1C7.10068 -1 -1 7.1007 -1 17.0934H1ZM1 98.6531V17.0934H-1V98.6531H1ZM17.0934 114.746C8.20525 114.746 1 107.541 1 98.6531H-1C-1 108.646 7.10069 116.746 17.0934 116.746V114.746ZM55.5534 114.746H17.0934V116.746H55.5534V114.746ZM71.6468 98.6531C71.6468 107.541 64.4416 114.746 55.5534 114.746V116.746C65.5461 116.746 73.6468 108.646 73.6468 98.6531H71.6468ZM71.6468 73.5867V98.6531H73.6468V73.5867H71.6468ZM72.6468 72.5867H44.5371V74.5867H72.6468V72.5867ZM45.5371 73.5867V65.1548H43.5371V73.5867H45.5371ZM44.5371 66.1548H72.6468V64.1548H44.5371V66.1548ZM71.6468 59.0225V65.1548H73.6468V59.0225H71.6468ZM44.5371 60.0225H72.6468V58.0225H44.5371V60.0225ZM43.5371 50.5906V59.0225H45.5371V50.5906H43.5371ZM72.6468 49.5906H44.5371V51.5906H72.6468V49.5906ZM71.6468 44.4583V50.5906H73.6468V44.4583H71.6468ZM44.5371 45.4583H72.6468V43.4583H44.5371V45.4583ZM43.5371 36.0264V44.4583H45.5371V36.0264H43.5371ZM72.6468 35.0264H44.5371V37.0264H72.6468V35.0264ZM71.6468 17.0934V36.0264H73.6468V17.0934H71.6468ZM55.5534 1C64.4416 1 71.6468 8.20525 71.6468 17.0934H73.6468C73.6468 7.10068 65.5461 -1 55.5534 -1V1ZM17.0934 1H55.5534V-1H17.0934V1Z" fill="url(#paint1_linear_642_10443)" mask="url(#path-2-inside-1_642_10443)"/>
<defs>
<linearGradient id="paint0_linear_642_10443" x1="36.4744" y1="115.746" x2="36.4744" y2="568" gradientUnits="userSpaceOnUse">
<stop stop-color="#CA80EF"/>
<stop offset="1" stop-color="#5BB5FF"/>
</linearGradient>
<linearGradient id="paint1_linear_642_10443" x1="36.3234" y1="0" x2="36.3234" y2="115.746" gradientUnits="userSpaceOnUse">
<stop stop-color="#CA80EF"/>
<stop offset="1" stop-color="#5BB5FF"/>
</linearGradient>
</defs>
</svg>
