<svg width="197" height="567" viewBox="0 0 197 567" fill="none" xmlns="http://www.w3.org/2000/svg">
<mask id="mask0_642_10587" style="mask-type:alpha" maskUnits="userSpaceOnUse" x="0" y="0" width="197" height="567">
<path d="M96.3154 76.1347L69.7255 7.55318C65.9074 -2.29443 72.5059 -1.7252 80.102 4.73958L133.606 51.8674C139.503 57.4598 140.935 57.7798 140.503 58.9521L132.958 72.4418L126.148 83.8721V327.249C126.148 370.794 170.897 321.27 188.732 290.672C193.632 282.264 194.028 278.831 195.541 279.769C201.248 296.651 188.84 335.338 181.922 352.571C165.579 386.053 159.658 395.523 169.276 424.011C193.92 477.188 202 576.683 192.5 566.238C127.003 487.656 46.5026 509.819 10.5089 559.291C4.02352 568.576 -0.226956 567.266 0.00937786 563.27C0.509376 554.815 5.00911 545.863 7.79046 539.675L67.78 429.242C83.4549 401.106 76.319 368.866 71.6711 348.351C61.2945 299.957 69.077 287.624 74.2652 287.506C78.4159 321.551 93.7213 323.966 100.855 320.918V109.898C101.115 90.4841 97.9368 79.3 96.3154 76.1347Z" fill="#D9D9D9"/>
</mask>
<g mask="url(#mask0_642_10587)">
<rect x="-1" y="-6" width="200" height="578" fill="url(#paint0_linear_642_10587)"/>
</g>
<defs>
<linearGradient id="paint0_linear_642_10587" x1="99" y1="-6" x2="99" y2="572" gradientUnits="userSpaceOnUse">
<stop stop-color="#B0F6FF"/>
<stop offset="0.375" stop-color="#9CA4FF"/>
<stop offset="1" stop-color="#7B1DFF"/>
</linearGradient>
</defs>
</svg>
