<svg width="35" height="78" viewBox="0 0 35 78" fill="none" xmlns="http://www.w3.org/2000/svg">
<mask id="mask0_624_7151" style="mask-type:alpha" maskUnits="userSpaceOnUse" x="0" y="0" width="35" height="139">
<mask id="path-1-inside-1_624_7151" fill="white">
<path fill-rule="evenodd" clip-rule="evenodd" d="M15.5162 0L35 0V5.00026H15.5162V3.79458H0L0 1.20824H15.5162V0ZM15.5162 7.5887H0L0 10.175H15.5162V11.3788H35V6.37858H15.5162V7.5887ZM0 13.9654H15.5162V12.7609H35V17.7612H15.5162V16.5517H0L0 13.9654ZM15.5162 20.3478H0L0 22.9341H15.5162V24.136H35V19.1357H15.5162V20.3478ZM0 26.7263H15.5162V25.5162H35V30.5165H15.5162V29.3127H0L0 26.7263ZM15.5162 33.1049H0L0 35.6913H15.5162V36.8988H35V31.8986H15.5162V33.1049ZM0 39.4835H15.5162V38.279H35V43.2793H15.5162V42.0698H0L0 39.4835ZM15.5162 45.8659H0L0 48.4522H15.5162V49.656H35V44.6557H15.5162V45.8659ZM0 52.2463H15.5162V51.0343H35V56.0346H15.5162V54.8327H0L0 52.2463ZM15.5162 58.623H0L0 61.2094H15.5162V62.4188H35V57.4186H15.5162V58.623ZM0 65.0035H15.5162V63.799H35V68.7993H15.5162V67.5898H0L0 65.0035ZM15.5162 71.3802H0L0 73.9665H15.5162V75.176H35V70.1757H15.5162V71.3802ZM0 77.7625H15.5162V76.5543H35V81.5546H15.5162V80.3489H0L0 77.7625ZM15.5162 84.143H0L0 86.7294H15.5162V87.935H35V82.9348H15.5162V84.143ZM0 90.5216H15.5162V89.3152H35V94.3155H15.5162V93.1079H0L0 90.5216ZM15.5162 96.9002H0L0 99.4865H15.5162V100.696H35V95.6957H15.5162V96.9002ZM0 103.281H15.5162V102.076H35V107.076H15.5162V105.867H0L0 103.281ZM15.5162 109.661H0L0 112.247H15.5162V113.455H35V108.455H15.5162V109.661ZM0 116.04H15.5162V114.835H35V119.835H15.5162V118.626H0L0 116.04ZM15.5162 122.42H0L0 125.007H15.5162V126.214H35V121.214H15.5162V122.42ZM0 128.801H15.5162V127.594H35V132.595H15.5162V131.387H0L0 128.801ZM15.5162 135.181H0L0 137.767H15.5162V138.971H35V133.971H15.5162V135.181Z"/>
</mask>
<path fill-rule="evenodd" clip-rule="evenodd" d="M15.5162 0L35 0V5.00026H15.5162V3.79458H0L0 1.20824H15.5162V0ZM15.5162 7.5887H0L0 10.175H15.5162V11.3788H35V6.37858H15.5162V7.5887ZM0 13.9654H15.5162V12.7609H35V17.7612H15.5162V16.5517H0L0 13.9654ZM15.5162 20.3478H0L0 22.9341H15.5162V24.136H35V19.1357H15.5162V20.3478ZM0 26.7263H15.5162V25.5162H35V30.5165H15.5162V29.3127H0L0 26.7263ZM15.5162 33.1049H0L0 35.6913H15.5162V36.8988H35V31.8986H15.5162V33.1049ZM0 39.4835H15.5162V38.279H35V43.2793H15.5162V42.0698H0L0 39.4835ZM15.5162 45.8659H0L0 48.4522H15.5162V49.656H35V44.6557H15.5162V45.8659ZM0 52.2463H15.5162V51.0343H35V56.0346H15.5162V54.8327H0L0 52.2463ZM15.5162 58.623H0L0 61.2094H15.5162V62.4188H35V57.4186H15.5162V58.623ZM0 65.0035H15.5162V63.799H35V68.7993H15.5162V67.5898H0L0 65.0035ZM15.5162 71.3802H0L0 73.9665H15.5162V75.176H35V70.1757H15.5162V71.3802ZM0 77.7625H15.5162V76.5543H35V81.5546H15.5162V80.3489H0L0 77.7625ZM15.5162 84.143H0L0 86.7294H15.5162V87.935H35V82.9348H15.5162V84.143ZM0 90.5216H15.5162V89.3152H35V94.3155H15.5162V93.1079H0L0 90.5216ZM15.5162 96.9002H0L0 99.4865H15.5162V100.696H35V95.6957H15.5162V96.9002ZM0 103.281H15.5162V102.076H35V107.076H15.5162V105.867H0L0 103.281ZM15.5162 109.661H0L0 112.247H15.5162V113.455H35V108.455H15.5162V109.661ZM0 116.04H15.5162V114.835H35V119.835H15.5162V118.626H0L0 116.04ZM15.5162 122.42H0L0 125.007H15.5162V126.214H35V121.214H15.5162V122.42ZM0 128.801H15.5162V127.594H35V132.595H15.5162V131.387H0L0 128.801ZM15.5162 135.181H0L0 137.767H15.5162V138.971H35V133.971H15.5162V135.181Z" fill="#5856D6"/>
<path d="M35 0L35.3296 0V-0.32958H35V0ZM15.5162 0V-0.32958H15.1866V0L15.5162 0ZM35 5.00026V5.32984H35.3296V5.00026H35ZM15.5162 5.00026H15.1866V5.32984H15.5162V5.00026ZM15.5162 3.79458H15.8458V3.465H15.5162V3.79458ZM0 3.79458H-0.32958V4.12416H0L0 3.79458ZM0 1.20824L0 0.878656H-0.32958V1.20824H0ZM15.5162 1.20824V1.53782H15.8458V1.20824H15.5162ZM0 7.5887L0 7.25912H-0.32958V7.5887H0ZM15.5162 7.5887V7.91828H15.8458V7.5887H15.5162ZM0 10.175H-0.32958V10.5046H0L0 10.175ZM15.5162 10.175H15.8458V9.84547H15.5162V10.175ZM15.5162 11.3788H15.1866V11.7084H15.5162V11.3788ZM35 11.3788V11.7084H35.3296V11.3788H35ZM35 6.37858H35.3296V6.049H35V6.37858ZM15.5162 6.37858V6.049H15.1866V6.37858H15.5162ZM15.5162 13.9654V14.295H15.8458V13.9654H15.5162ZM0 13.9654L0 13.6358H-0.32958V13.9654H0ZM15.5162 12.7609V12.4314H15.1866V12.7609H15.5162ZM35 12.7609H35.3296V12.4314H35V12.7609ZM35 17.7612V18.0908H35.3296V17.7612H35ZM15.5162 17.7612H15.1866V18.0908H15.5162V17.7612ZM15.5162 16.5517H15.8458V16.2222H15.5162V16.5517ZM0 16.5517H-0.32958V16.8813H0L0 16.5517ZM0 20.3478L0 20.0182H-0.32958V20.3478H0ZM15.5162 20.3478V20.6773H15.8458V20.3478H15.5162ZM0 22.9341H-0.32958V23.2637H0L0 22.9341ZM15.5162 22.9341H15.8458V22.6045H15.5162V22.9341ZM15.5162 24.136H15.1866V24.4656H15.5162V24.136ZM35 24.136V24.4656H35.3296V24.136H35ZM35 19.1357H35.3296V18.8062H35V19.1357ZM15.5162 19.1357V18.8062H15.1866V19.1357H15.5162ZM15.5162 26.7263V27.0559H15.8458V26.7263H15.5162ZM0 26.7263L0 26.3968H-0.32958V26.7263H0ZM15.5162 25.5162V25.1866H15.1866V25.5162H15.5162ZM35 25.5162H35.3296V25.1866H35V25.5162ZM35 30.5165V30.8461H35.3296V30.5165H35ZM15.5162 30.5165H15.1866V30.8461H15.5162V30.5165ZM15.5162 29.3127H15.8458V28.9831H15.5162V29.3127ZM0 29.3127H-0.32958V29.6423H0L0 29.3127ZM0 33.1049L0 32.7753H-0.32958V33.1049H0ZM15.5162 33.1049V33.4345H15.8458V33.1049H15.5162ZM0 35.6913H-0.32958V36.0208H0L0 35.6913ZM15.5162 35.6913H15.8458V35.3617H15.5162V35.6913ZM15.5162 36.8988H15.1866V37.2284H15.5162V36.8988ZM35 36.8988V37.2284H35.3296V36.8988H35ZM35 31.8986H35.3296V31.569H35V31.8986ZM15.5162 31.8986V31.569H15.1866V31.8986H15.5162ZM15.5162 39.4835V39.8131H15.8458V39.4835H15.5162ZM0 39.4835L0 39.1539H-0.32958V39.4835H0ZM15.5162 38.279V37.9495H15.1866V38.279H15.5162ZM35 38.279H35.3296V37.9495H35V38.279ZM35 43.2793V43.6089H35.3296V43.2793H35ZM15.5162 43.2793H15.1866V43.6089H15.5162V43.2793ZM15.5162 42.0698H15.8458V41.7403H15.5162V42.0698ZM0 42.0698H-0.32958V42.3994H0L0 42.0698ZM0 45.8659L0 45.5363H-0.32958V45.8659H0ZM15.5162 45.8659V46.1954H15.8458V45.8659H15.5162ZM0 48.4522H-0.32958V48.7818H0L0 48.4522ZM15.5162 48.4522H15.8458V48.1226H15.5162V48.4522ZM15.5162 49.656H15.1866V49.9856H15.5162V49.656ZM35 49.656V49.9856H35.3296V49.656H35ZM35 44.6557H35.3296V44.3262H35V44.6557ZM15.5162 44.6557V44.3262H15.1866V44.6557H15.5162ZM15.5162 52.2463V52.5759H15.8458V52.2463H15.5162ZM0 52.2463L0 51.9167H-0.32958V52.2463H0ZM15.5162 51.0343V50.7047H15.1866V51.0343H15.5162ZM35 51.0343H35.3296V50.7047H35V51.0343ZM35 56.0346V56.3642H35.3296V56.0346H35ZM15.5162 56.0346H15.1866V56.3642H15.5162V56.0346ZM15.5162 54.8327H15.8458V54.5031H15.5162V54.8327ZM0 54.8327H-0.32958V55.1622H0L0 54.8327ZM0 58.623L0 58.2934H-0.32958V58.623H0ZM15.5162 58.623V58.9526H15.8458V58.623H15.5162ZM0 61.2094H-0.32958V61.5389H0L0 61.2094ZM15.5162 61.2094H15.8458V60.8798H15.5162V61.2094ZM15.5162 62.4188H15.1866V62.7484H15.5162V62.4188ZM35 62.4188V62.7484H35.3296V62.4188H35ZM35 57.4186H35.3296V57.089H35V57.4186ZM15.5162 57.4186V57.089H15.1866V57.4186H15.5162ZM15.5162 65.0035V65.3331H15.8458V65.0035H15.5162ZM0 65.0035L0 64.6739H-0.32958V65.0035H0ZM15.5162 63.799V63.4694H15.1866V63.799H15.5162ZM35 63.799H35.3296V63.4694H35V63.799ZM35 68.7993V69.1289H35.3296V68.7993H35ZM15.5162 68.7993H15.1866V69.1289H15.5162V68.7993ZM15.5162 67.5898H15.8458V67.2603H15.5162V67.5898ZM0 67.5898H-0.32958V67.9194H0L0 67.5898ZM0 71.3802L0 71.0506H-0.32958V71.3802H0ZM15.5162 71.3802V71.7098H15.8458V71.3802H15.5162ZM0 73.9665H-0.32958V74.2961H0L0 73.9665ZM15.5162 73.9665H15.8458V73.637H15.5162V73.9665ZM15.5162 75.176H15.1866V75.5056H15.5162V75.176ZM35 75.176V75.5056H35.3296V75.176H35ZM35 70.1757H35.3296V69.8461H35V70.1757ZM15.5162 70.1757V69.8461H15.1866V70.1757H15.5162ZM15.5162 77.7625V78.0921H15.8458V77.7625H15.5162ZM0 77.7625L0 77.433H-0.32958V77.7625H0ZM15.5162 76.5543V76.2247H15.1866V76.5543H15.5162ZM35 76.5543H35.3296V76.2247H35V76.5543ZM35 81.5546V81.8841H35.3296V81.5546H35ZM15.5162 81.5546H15.1866V81.8841H15.5162V81.5546ZM15.5162 80.3489H15.8458V80.0193H15.5162V80.3489ZM0 80.3489H-0.32958V80.6785H0L0 80.3489ZM0 84.143L0 83.8134H-0.32958V84.143H0ZM15.5162 84.143V84.4726H15.8458V84.143H15.5162ZM0 86.7294H-0.32958V87.0589H0L0 86.7294ZM15.5162 86.7294H15.8458V86.3998H15.5162V86.7294ZM15.5162 87.935H15.1866V88.2646H15.5162V87.935ZM35 87.935V88.2646H35.3296V87.935H35ZM35 82.9348H35.3296V82.6052H35V82.9348ZM15.5162 82.9348V82.6052H15.1866V82.9348H15.5162ZM15.5162 90.5216V90.8512H15.8458V90.5216H15.5162ZM0 90.5216L0 90.192H-0.32958V90.5216H0ZM15.5162 89.3152V88.9857H15.1866V89.3152H15.5162ZM35 89.3152H35.3296V88.9857H35V89.3152ZM35 94.3155V94.6451H35.3296V94.3155H35ZM15.5162 94.3155H15.1866V94.6451H15.5162V94.3155ZM15.5162 93.1079H15.8458V92.7784H15.5162V93.1079ZM0 93.1079H-0.32958V93.4375H0L0 93.1079ZM0 96.9002L0 96.5706H-0.32958V96.9002H0ZM15.5162 96.9002V97.2298H15.8458V96.9002H15.5162ZM0 99.4865H-0.32958V99.8161H0L0 99.4865ZM15.5162 99.4865H15.8458V99.1569H15.5162V99.4865ZM15.5162 100.696H15.1866V101.026H15.5162V100.696ZM35 100.696V101.026H35.3296V100.696H35ZM35 95.6957H35.3296V95.3661H35V95.6957ZM15.5162 95.6957V95.3661H15.1866V95.6957H15.5162ZM15.5162 103.281V103.61H15.8458V103.281H15.5162ZM0 103.281L0 102.951H-0.32958V103.281H0ZM15.5162 102.076V101.747H15.1866V102.076H15.5162ZM35 102.076H35.3296V101.747H35V102.076ZM35 107.076V107.406H35.3296V107.076H35ZM15.5162 107.076H15.1866V107.406H15.5162V107.076ZM15.5162 105.867H15.8458V105.537H15.5162V105.867ZM0 105.867H-0.32958V106.197H0L0 105.867ZM0 109.661L0 109.332H-0.32958V109.661H0ZM15.5162 109.661V109.991H15.8458V109.661H15.5162ZM0 112.247H-0.32958V112.577H0L0 112.247ZM15.5162 112.247H15.8458V111.918H15.5162V112.247ZM15.5162 113.455H15.1866V113.785H15.5162V113.455ZM35 113.455V113.785H35.3296V113.455H35ZM35 108.455H35.3296V108.125H35V108.455ZM15.5162 108.455V108.125H15.1866V108.455H15.5162ZM15.5162 116.04V116.369H15.8458V116.04H15.5162ZM0 116.04L0 115.71H-0.32958V116.04H0ZM15.5162 114.835V114.506H15.1866V114.835H15.5162ZM35 114.835H35.3296V114.506H35V114.835ZM35 119.835V120.165H35.3296V119.835H35ZM15.5162 119.835H15.1866V120.165H15.5162V119.835ZM15.5162 118.626H15.8458V118.296H15.5162V118.626ZM0 118.626H-0.32958V118.956H0L0 118.626ZM0 122.42L0 122.091H-0.32958V122.42H0ZM15.5162 122.42V122.75H15.8458V122.42H15.5162ZM0 125.007H-0.32958V125.336H0L0 125.007ZM15.5162 125.007H15.8458V124.677H15.5162V125.007ZM15.5162 126.214H15.1866V126.544H15.5162V126.214ZM35 126.214V126.544H35.3296V126.214H35ZM35 121.214H35.3296V120.884H35V121.214ZM15.5162 121.214V120.884H15.1866V121.214H15.5162ZM15.5162 128.801V129.13H15.8458V128.801H15.5162ZM0 128.801L0 128.471H-0.32958V128.801H0ZM15.5162 127.594V127.265H15.1866V127.594H15.5162ZM35 127.594H35.3296V127.265H35V127.594ZM35 132.595V132.924H35.3296V132.595H35ZM15.5162 132.595H15.1866V132.924H15.5162V132.595ZM15.5162 131.387H15.8458V131.057H15.5162V131.387ZM0 131.387H-0.32958V131.717H0L0 131.387ZM0 135.181L0 134.852H-0.32958V135.181H0ZM15.5162 135.181V135.511H15.8458V135.181H15.5162ZM0 137.767H-0.32958V138.097H0L0 137.767ZM15.5162 137.767H15.8458V137.438H15.5162V137.767ZM15.5162 138.971H15.1866V139.301H15.5162V138.971ZM35 138.971V139.301H35.3296V138.971H35ZM35 133.971H35.3296V133.641H35V133.971ZM15.5162 133.971V133.641H15.1866V133.971H15.5162ZM35 -0.32958H15.5162V0.32958H35V-0.32958ZM35.3296 5.00026V0L34.6704 0V5.00026H35.3296ZM15.5162 5.32984H35V4.67068H15.5162V5.32984ZM15.1866 3.79458V5.00026H15.8458V3.79458H15.1866ZM0 4.12416H15.5162V3.465H0L0 4.12416ZM-0.32958 1.20824V3.79458H0.32958V1.20824H-0.32958ZM15.5162 0.878656H0L0 1.53782H15.5162V0.878656ZM15.1866 0V1.20824H15.8458V0L15.1866 0ZM0 7.91828H15.5162V7.25912H0L0 7.91828ZM0.32958 10.175V7.5887H-0.32958V10.175H0.32958ZM15.5162 9.84547H0L0 10.5046H15.5162V9.84547ZM15.8458 11.3788V10.175H15.1866V11.3788H15.8458ZM35 11.0493H15.5162V11.7084H35V11.0493ZM34.6704 6.37858V11.3788H35.3296V6.37858H34.6704ZM15.5162 6.70816H35V6.049H15.5162V6.70816ZM15.8458 7.5887V6.37858H15.1866V7.5887H15.8458ZM15.5162 13.6358H0L0 14.295H15.5162V13.6358ZM15.1866 12.7609V13.9654H15.8458V12.7609H15.1866ZM35 12.4314H15.5162V13.0905H35V12.4314ZM35.3296 17.7612V12.7609H34.6704V17.7612H35.3296ZM15.5162 18.0908H35V17.4316H15.5162V18.0908ZM15.1866 16.5517V17.7612H15.8458V16.5517H15.1866ZM0 16.8813H15.5162V16.2222H0L0 16.8813ZM-0.32958 13.9654V16.5517H0.32958V13.9654H-0.32958ZM0 20.6773H15.5162V20.0182H0L0 20.6773ZM0.32958 22.9341V20.3478H-0.32958V22.9341H0.32958ZM15.5162 22.6045H0L0 23.2637H15.5162V22.6045ZM15.8458 24.136V22.9341H15.1866V24.136H15.8458ZM35 23.8064H15.5162V24.4656H35V23.8064ZM34.6704 19.1357V24.136H35.3296V19.1357H34.6704ZM15.5162 19.4653H35V18.8062H15.5162V19.4653ZM15.8458 20.3478V19.1357H15.1866V20.3478H15.8458ZM15.5162 26.3968H0L0 27.0559H15.5162V26.3968ZM15.1866 25.5162V26.7263H15.8458V25.5162H15.1866ZM35 25.1866H15.5162V25.8458H35V25.1866ZM35.3296 30.5165V25.5162H34.6704V30.5165H35.3296ZM15.5162 30.8461H35V30.1869H15.5162V30.8461ZM15.1866 29.3127V30.5165H15.8458V29.3127H15.1866ZM0 29.6423H15.5162V28.9831H0L0 29.6423ZM-0.32958 26.7263V29.3127H0.32958V26.7263H-0.32958ZM0 33.4345H15.5162V32.7753H0L0 33.4345ZM0.32958 35.6913V33.1049H-0.32958V35.6913H0.32958ZM15.5162 35.3617H0L0 36.0208H15.5162V35.3617ZM15.8458 36.8988V35.6913H15.1866V36.8988H15.8458ZM35 36.5693H15.5162V37.2284H35V36.5693ZM34.6704 31.8986V36.8988H35.3296V31.8986H34.6704ZM15.5162 32.2281H35V31.569H15.5162V32.2281ZM15.8458 33.1049V31.8986H15.1866V33.1049H15.8458ZM15.5162 39.1539H0L0 39.8131H15.5162V39.1539ZM15.1866 38.279V39.4835H15.8458V38.279H15.1866ZM35 37.9495H15.5162V38.6086H35V37.9495ZM35.3296 43.2793V38.279H34.6704V43.2793H35.3296ZM15.5162 43.6089H35V42.9497H15.5162V43.6089ZM15.1866 42.0698V43.2793H15.8458V42.0698H15.1866ZM0 42.3994H15.5162V41.7403H0L0 42.3994ZM-0.32958 39.4835V42.0698H0.32958V39.4835H-0.32958ZM0 46.1954H15.5162V45.5363H0L0 46.1954ZM0.32958 48.4522V45.8659H-0.32958V48.4522H0.32958ZM15.5162 48.1226H0L0 48.7818H15.5162V48.1226ZM15.8458 49.656V48.4522H15.1866V49.656H15.8458ZM35 49.3264H15.5162V49.9856H35V49.3264ZM34.6704 44.6557V49.656H35.3296V44.6557H34.6704ZM15.5162 44.9853H35V44.3262H15.5162V44.9853ZM15.8458 45.8659V44.6557H15.1866V45.8659H15.8458ZM15.5162 51.9167H0L0 52.5759H15.5162V51.9167ZM15.1866 51.0343V52.2463H15.8458V51.0343H15.1866ZM35 50.7047H15.5162V51.3639H35V50.7047ZM35.3296 56.0346V51.0343H34.6704V56.0346H35.3296ZM15.5162 56.3642H35V55.705H15.5162V56.3642ZM15.1866 54.8327V56.0346H15.8458V54.8327H15.1866ZM0 55.1622H15.5162V54.5031H0L0 55.1622ZM-0.32958 52.2463V54.8327H0.32958V52.2463H-0.32958ZM0 58.9526H15.5162V58.2934H0L0 58.9526ZM0.32958 61.2094V58.623H-0.32958V61.2094H0.32958ZM15.5162 60.8798H0L0 61.5389H15.5162V60.8798ZM15.8458 62.4188V61.2094H15.1866V62.4188H15.8458ZM35 62.0892H15.5162V62.7484H35V62.0892ZM34.6704 57.4186V62.4188H35.3296V57.4186H34.6704ZM15.5162 57.7481H35V57.089H15.5162V57.7481ZM15.8458 58.623V57.4186H15.1866V58.623H15.8458ZM15.5162 64.6739H0L0 65.3331H15.5162V64.6739ZM15.1866 63.799V65.0035H15.8458V63.799H15.1866ZM35 63.4694H15.5162V64.1286H35V63.4694ZM35.3296 68.7993V63.799H34.6704V68.7993H35.3296ZM15.5162 69.1289H35V68.4697H15.5162V69.1289ZM15.1866 67.5898V68.7993H15.8458V67.5898H15.1866ZM0 67.9194H15.5162V67.2603H0L0 67.9194ZM-0.32958 65.0035V67.5898H0.32958V65.0035H-0.32958ZM0 71.7098H15.5162V71.0506H0L0 71.7098ZM0.32958 73.9665V71.3802H-0.32958V73.9665H0.32958ZM15.5162 73.637H0L0 74.2961H15.5162V73.637ZM15.8458 75.176V73.9665H15.1866V75.176H15.8458ZM35 74.8464H15.5162V75.5056H35V74.8464ZM34.6704 70.1757V75.176H35.3296V70.1757H34.6704ZM15.5162 70.5053H35V69.8461H15.5162V70.5053ZM15.8458 71.3802V70.1757H15.1866V71.3802H15.8458ZM15.5162 77.433H0L0 78.0921H15.5162V77.433ZM15.1866 76.5543V77.7625H15.8458V76.5543H15.1866ZM35 76.2247H15.5162V76.8839H35V76.2247ZM35.3296 81.5546V76.5543H34.6704V81.5546H35.3296ZM15.5162 81.8841H35V81.225H15.5162V81.8841ZM15.1866 80.3489V81.5546H15.8458V80.3489H15.1866ZM0 80.6785H15.5162V80.0193H0L0 80.6785ZM-0.32958 77.7625V80.3489H0.32958V77.7625H-0.32958ZM0 84.4726H15.5162V83.8134H0L0 84.4726ZM0.32958 86.7294V84.143H-0.32958V86.7294H0.32958ZM15.5162 86.3998H0L0 87.0589H15.5162V86.3998ZM15.8458 87.935V86.7294H15.1866V87.935H15.8458ZM35 87.6055H15.5162V88.2646H35V87.6055ZM34.6704 82.9348V87.935H35.3296V82.9348H34.6704ZM15.5162 83.2644H35V82.6052H15.5162V83.2644ZM15.8458 84.143V82.9348H15.1866V84.143H15.8458ZM15.5162 90.192H0L0 90.8512H15.5162V90.192ZM15.1866 89.3152V90.5216H15.8458V89.3152H15.1866ZM35 88.9857H15.5162V89.6448H35V88.9857ZM35.3296 94.3155V89.3152H34.6704V94.3155H35.3296ZM15.5162 94.6451H35V93.9859H15.5162V94.6451ZM15.1866 93.1079V94.3155H15.8458V93.1079H15.1866ZM0 93.4375H15.5162V92.7784H0L0 93.4375ZM-0.32958 90.5216V93.1079H0.32958V90.5216H-0.32958ZM0 97.2298H15.5162V96.5706H0L0 97.2298ZM0.32958 99.4865V96.9002H-0.32958V99.4865H0.32958ZM15.5162 99.1569H0L0 99.8161H15.5162V99.1569ZM15.8458 100.696V99.4865H15.1866V100.696H15.8458ZM35 100.366H15.5162V101.026H35V100.366ZM34.6704 95.6957V100.696H35.3296V95.6957H34.6704ZM15.5162 96.0253H35V95.3661H15.5162V96.0253ZM15.8458 96.9002V95.6957H15.1866V96.9002H15.8458ZM15.5162 102.951H0L0 103.61H15.5162V102.951ZM15.1866 102.076V103.281H15.8458V102.076H15.1866ZM35 101.747H15.5162V102.406H35V101.747ZM35.3296 107.076V102.076H34.6704V107.076H35.3296ZM15.5162 107.406H35V106.747H15.5162V107.406ZM15.1866 105.867V107.076H15.8458V105.867H15.1866ZM0 106.197H15.5162V105.537H0L0 106.197ZM-0.32958 103.281V105.867H0.32958V103.281H-0.32958ZM0 109.991H15.5162V109.332H0L0 109.991ZM0.32958 112.247V109.661H-0.32958V112.247H0.32958ZM15.5162 111.918H0L0 112.577H15.5162V111.918ZM15.8458 113.455V112.247H15.1866V113.455H15.8458ZM35 113.125H15.5162V113.785H35V113.125ZM34.6704 108.455V113.455H35.3296V108.455H34.6704ZM15.5162 108.784H35V108.125H15.5162V108.784ZM15.8458 109.661V108.455H15.1866V109.661H15.8458ZM15.5162 115.71H0L0 116.369H15.5162V115.71ZM15.1866 114.835V116.04H15.8458V114.835H15.1866ZM35 114.506H15.5162V115.165H35V114.506ZM35.3296 119.835V114.835H34.6704V119.835H35.3296ZM15.5162 120.165H35V119.506H15.5162V120.165ZM15.1866 118.626V119.835H15.8458V118.626H15.1866ZM0 118.956H15.5162V118.296H0L0 118.956ZM-0.32958 116.04V118.626H0.32958V116.04H-0.32958ZM0 122.75H15.5162V122.091H0L0 122.75ZM0.32958 125.007V122.42H-0.32958V125.007H0.32958ZM15.5162 124.677H0L0 125.336H15.5162V124.677ZM15.8458 126.214V125.007H15.1866V126.214H15.8458ZM35 125.884H15.5162V126.544H35V125.884ZM34.6704 121.214V126.214H35.3296V121.214H34.6704ZM15.5162 121.543H35V120.884H15.5162V121.543ZM15.8458 122.42V121.214H15.1866V122.42H15.8458ZM15.5162 128.471H0L0 129.13H15.5162V128.471ZM15.1866 127.594V128.801H15.8458V127.594H15.1866ZM35 127.265H15.5162V127.924H35V127.265ZM35.3296 132.595V127.594H34.6704V132.595H35.3296ZM15.5162 132.924H35V132.265H15.5162V132.924ZM15.1866 131.387V132.595H15.8458V131.387H15.1866ZM0 131.717H15.5162V131.057H0L0 131.717ZM-0.32958 128.801V131.387H0.32958V128.801H-0.32958ZM0 135.511H15.5162V134.852H0L0 135.511ZM0.32958 137.767V135.181H-0.32958V137.767H0.32958ZM15.5162 137.438H0L0 138.097H15.5162V137.438ZM15.8458 138.971V137.767H15.1866V138.971H15.8458ZM35 138.642H15.5162V139.301H35V138.642ZM34.6704 133.971V138.971H35.3296V133.971H34.6704ZM15.5162 134.301H35V133.641H15.5162V134.301ZM15.8458 135.181V133.971H15.1866V135.181H15.8458Z" fill="url(#paint0_linear_624_7151)" mask="url(#path-1-inside-1_624_7151)"/>
</mask>
<g mask="url(#mask0_624_7151)">
<rect x="-6.1167" y="0.246094" width="47.2214" height="138.973" fill="white" fill-opacity="0.9"/>
</g>
<defs>
<linearGradient id="paint0_linear_624_7151" x1="17.5" y1="0" x2="17.5" y2="138.971" gradientUnits="userSpaceOnUse">
<stop stop-color="#CA80EF"/>
<stop offset="1" stop-color="#5BB5FF"/>
</linearGradient>
</defs>
</svg>
