<svg width="144" height="568" viewBox="0 0 144 568" fill="none" xmlns="http://www.w3.org/2000/svg">
<mask id="mask0_642_10586" style="mask-type:alpha" maskUnits="userSpaceOnUse" x="0" y="0" width="144" height="568">
<path fill-rule="evenodd" clip-rule="evenodd" d="M63.4243 0H143.057V20.4367H63.4243V15.5043H0V4.93359H63.4243V0ZM63.4243 31.0078H0V41.5785H63.4243V46.5109H143.057V26.0742H63.4243V31.0078ZM0 57.082H63.4243V52.1484H143.057V72.5852H63.4243V67.6527H0V57.082ZM63.4243 83.1562H0V93.727H63.4243V98.6594H143.057V78.2227H63.4243V83.1562ZM0 109.23H63.4243V104.297H143.057V124.734H63.4243V119.801H0V109.23ZM63.4243 135.305H0V145.875H63.4243V150.812H143.057V130.375H63.4243V135.305ZM0 161.379H63.4243V156.445H143.057V176.882H63.4243V171.95H0V161.379ZM63.4243 187.453H0V198.024H63.4243V202.96H143.057V182.523H63.4243V187.453ZM0 213.531H63.4243V208.594H143.057V229.03H63.4243V224.102H0V213.531ZM63.4243 239.602H0V250.172H63.4243V255.109H143.057V234.672H63.4243V239.602ZM0 265.68H63.4243V260.742H143.057V281.179H63.4243V276.25H0V265.68ZM63.4243 291.75H0V302.321H63.4243V307.257H143.057V286.82H63.4243V291.75ZM0 317.828H63.4243V312.891H143.057V333.327H63.4243V328.399H0V317.828ZM63.4243 343.898H0V354.469H63.4243V359.405H143.057V338.969H63.4243V343.898ZM0 369.977H63.4243V365.043H143.057V385.48H63.4243V380.547H0V369.977ZM63.4243 396.047H0V406.618H63.4243V411.554H143.057V391.117H63.4243V396.047ZM0 422.125H63.4243V417.191H143.057V437.628H63.4243V432.696H0V422.125ZM63.4243 448.199H0V458.77H63.4243V463.702H143.057V443.266H63.4243V448.199ZM0 474.273H63.4243V469.34H143.057V489.777H63.4243V484.844H0V474.273ZM63.4243 500.348H0V510.918H63.4243V515.851H143.057V495.414H63.4243V500.348ZM0 526.422H63.4243V521.488H143.057V541.925H63.4243V536.993H0V526.422ZM63.4243 552.496H0V563.067H63.4243V567.999H143.057V547.562H63.4243V552.496Z" fill="#D9D9D9"/>
</mask>
<g mask="url(#mask0_642_10586)">
<rect x="-28" y="-5" width="200" height="578" fill="url(#paint0_linear_642_10586)"/>
</g>
<defs>
<linearGradient id="paint0_linear_642_10586" x1="72" y1="-5" x2="72" y2="573" gradientUnits="userSpaceOnUse">
<stop stop-color="#B0F6FF"/>
<stop offset="0.375" stop-color="#9CA4FF"/>
<stop offset="1" stop-color="#7B1DFF"/>
</linearGradient>
</defs>
</svg>
