<svg width="60" height="567" viewBox="0 0 60 567" fill="none" xmlns="http://www.w3.org/2000/svg">
<mask id="path-1-inside-1_642_10391" fill="white">
<path fill-rule="evenodd" clip-rule="evenodd" d="M21.176 27.5132C23.8192 24.9733 25.534 20.8854 25.534 16.2752C25.534 8.57072 20.7449 0 14.8373 0C8.92971 0 4.14065 8.57072 4.14065 16.2752C4.14065 21.383 6.24555 25.8496 9.3858 28.2802L2.07032 72.2028C1.49523 78.1999 0.276043 91.9212 0 98.8299V557.487C0.805125 560.526 4.55471 566.651 13.112 566.843C18.6071 567.479 29.6398 566.516 30.0151 557.613C30.8888 560.692 34.6519 566.653 43.0925 566.843C48.6134 567.482 59.7241 566.507 60.0001 557.487V98.8299C59.31 91.0736 57.8608 74.8895 57.5848 72.2028L51.1565 27.5132C53.7996 24.9733 55.5144 20.8854 55.5144 16.2752C55.5144 8.57072 50.7254 0 44.8178 0C38.9102 0 34.1211 8.57072 34.1211 16.2752C34.1211 21.383 36.226 25.8496 39.3663 28.2802L32.0508 72.2028C31.4839 78.1141 30.2913 91.5301 29.9929 98.5291C29.2928 90.6631 27.8768 74.8552 27.6043 72.2028L21.176 27.5132ZM39.3663 28.2802C40.9627 29.5159 42.8267 30.2253 44.8178 30.2253C47.1904 30.2253 49.3825 29.2179 51.1565 27.5132L51.0287 26.6249H39.642L39.3663 28.2802ZM29.9929 98.5291L30.0197 98.8299V557.487C30.0184 557.529 30.0168 557.571 30.0151 557.613C30.003 557.571 29.9915 557.529 29.9805 557.487V98.8299C29.9844 98.731 29.9886 98.6308 29.9929 98.5291ZM21.176 27.5132C19.4021 29.2179 17.2099 30.2253 14.8373 30.2253C12.8462 30.2253 10.9822 29.5159 9.3858 28.2802L9.6615 26.6249H21.0483L21.176 27.5132Z"/>
</mask>
<path d="M2.07032 72.2028L1.08391 72.0385L1.0782 72.0728L1.07489 72.1073L2.07032 72.2028ZM0 98.8299L-0.999203 98.7899L-1 98.8099V98.8299H0ZM0 557.487H-1V557.617L-0.966641 557.743L0 557.487ZM13.112 566.843L13.2271 565.849L13.1809 565.844L13.1345 565.843L13.112 566.843ZM43.0925 566.843L43.2076 565.849L43.1614 565.844L43.1149 565.843L43.0925 566.843ZM60.0001 557.487L60.9997 557.518L61.0001 557.503V557.487H60.0001ZM60.0001 98.8299H61.0001V98.7855L60.9962 98.7412L60.0001 98.8299ZM57.5848 72.2028L58.5795 72.1006L58.5774 72.0804L58.5746 72.0604L57.5848 72.2028ZM32.0508 72.2028L31.0644 72.0385L31.0587 72.0728L31.0554 72.1073L32.0508 72.2028ZM27.6043 72.2028L28.599 72.1006L28.597 72.0804L28.5941 72.0604L27.6043 72.2028ZM51.0287 26.6249L52.0185 26.4825L51.8952 25.6249H51.0287V26.6249ZM39.642 26.6249V25.6249H38.7947L38.6556 26.4606L39.642 26.6249ZM30.0197 98.8299H31.0197V98.7855L31.0157 98.7412L30.0197 98.8299ZM30.0197 557.487L31.0192 557.518L31.0197 557.503V557.487H30.0197ZM29.9805 557.487H28.9805V557.618L29.0138 557.743L29.9805 557.487ZM29.9805 98.8299L28.9813 98.7899L28.9805 98.8099V98.8299H29.9805ZM9.6615 26.6249V25.6249H8.81428L8.67509 26.4606L9.6615 26.6249ZM21.0483 26.6249L22.0381 26.4825L21.9147 25.6249H21.0483V26.6249ZM24.534 16.2752C24.534 20.6512 22.9043 24.4656 20.4832 26.7922L21.8689 28.2343C24.734 25.4811 26.534 21.1196 26.534 16.2752H24.534ZM14.8373 1C17.2848 1 19.6936 2.79513 21.5523 5.77736C23.3896 8.7252 24.534 12.6109 24.534 16.2752H26.534C26.534 12.235 25.2838 7.98311 23.2496 4.71947C21.237 1.49023 18.2975 -1 14.8373 -1V1ZM5.14065 16.2752C5.14065 12.6109 6.28498 8.7252 8.12228 5.77736C9.98102 2.79513 12.3899 1 14.8373 1V-1C11.3772 -1 8.43767 1.49023 6.42497 4.71947C4.39084 7.98311 3.14065 12.235 3.14065 16.2752H5.14065ZM9.99789 27.4894C7.14341 25.28 5.14065 21.1295 5.14065 16.2752H3.14065C3.14065 21.6364 5.34769 26.4192 8.77372 29.071L9.99789 27.4894ZM3.05673 72.3671L10.3722 28.4445L8.39939 28.1159L1.08391 72.0385L3.05673 72.3671ZM0.999203 98.8698C1.27396 91.9934 2.49029 78.2993 3.06575 72.2982L1.07489 72.1073C0.500178 78.1005 -0.721872 91.8491 -0.999203 98.7899L0.999203 98.8698ZM1 557.487V98.8299H-1V557.487H1ZM13.1345 565.843C5.14198 565.664 1.69161 559.967 0.966641 557.231L-0.966641 557.743C-0.0813589 561.084 3.96743 567.638 13.0896 567.842L13.1345 565.843ZM29.016 557.571C28.9315 559.574 28.2559 561.084 27.2378 562.24C26.2065 563.411 24.7807 564.267 23.1407 564.866C19.8424 566.069 15.8793 566.157 13.2271 565.849L12.9969 567.836C15.8398 568.165 20.1405 568.089 23.8262 566.745C25.6781 566.069 27.4244 565.055 28.7389 563.562C30.0668 562.053 30.911 560.104 31.0142 557.655L29.016 557.571ZM43.1149 565.843C35.2318 565.666 31.7669 560.123 30.9771 557.34L29.0531 557.886C30.0107 561.26 34.072 567.641 43.0701 567.842L43.1149 565.843ZM59.0006 557.457C58.9384 559.49 58.2734 561.02 57.2617 562.19C56.2367 563.376 54.8113 564.243 53.1672 564.849C49.8602 566.068 45.8727 566.158 43.2076 565.849L42.9774 567.836C45.8332 568.167 50.1614 568.089 53.8591 566.725C55.7172 566.04 57.4663 565.012 58.7748 563.498C60.0965 561.969 60.9239 559.995 60.9997 557.518L59.0006 557.457ZM59.0001 98.8299V557.487H61.0001V98.8299H59.0001ZM56.59 72.305C56.8651 74.9828 58.3134 91.1565 59.0041 98.9185L60.9962 98.7412C60.3066 90.9908 58.8565 74.7962 58.5795 72.1006L56.59 72.305ZM50.1667 27.6556L56.5949 72.3452L58.5746 72.0604L52.1463 27.3708L50.1667 27.6556ZM54.5144 16.2752C54.5144 20.6512 52.8848 24.4656 50.4636 26.7922L51.8494 28.2343C54.7145 25.4811 56.5144 21.1196 56.5144 16.2752H54.5144ZM44.8178 1C47.2652 1 49.6741 2.79513 51.5328 5.77736C53.3701 8.7252 54.5144 12.6109 54.5144 16.2752H56.5144C56.5144 12.235 55.2642 7.98311 53.2301 4.71947C51.2174 1.49023 48.2779 -1 44.8178 -1V1ZM35.1211 16.2752C35.1211 12.6109 36.2655 8.7252 38.1028 5.77736C39.9615 2.79513 42.3703 1 44.8178 1V-1C41.3576 -1 38.4181 1.49023 36.4054 4.71947C34.3713 7.98311 33.1211 12.235 33.1211 16.2752H35.1211ZM39.9784 27.4894C37.1239 25.28 35.1211 21.1295 35.1211 16.2752H33.1211C33.1211 21.6364 35.3282 26.4192 38.7542 29.071L39.9784 27.4894ZM33.0372 72.3671L40.3527 28.4445L38.3799 28.1159L31.0644 72.0385L33.0372 72.3671ZM30.992 98.5717C31.2891 91.6031 32.4791 78.2124 33.0462 72.2982L31.0554 72.1073C30.4888 78.0157 29.2935 91.4571 28.9938 98.4865L30.992 98.5717ZM26.6095 72.305C26.8811 74.9486 28.2962 90.746 28.9968 98.6178L30.989 98.4405C30.2894 90.5803 28.8725 74.7619 28.599 72.1006L26.6095 72.305ZM20.1862 27.6556L26.6145 72.3452L28.5941 72.0604L22.1659 27.3708L20.1862 27.6556ZM44.8178 29.2253C43.074 29.2253 41.421 28.6061 39.9784 27.4894L38.7542 29.071C40.5044 30.4257 42.5794 31.2253 44.8178 31.2253V29.2253ZM50.4636 26.7922C48.8454 28.3472 46.8926 29.2253 44.8178 29.2253V31.2253C47.4881 31.2253 49.9196 30.0887 51.8494 28.2343L50.4636 26.7922ZM50.0389 26.7673L50.1667 27.6556L52.1463 27.3708L52.0185 26.4825L50.0389 26.7673ZM39.642 27.6249H51.0287V25.6249H39.642V27.6249ZM40.3527 28.4445L40.6284 26.7892L38.6556 26.4606L38.3799 28.1159L40.3527 28.4445ZM31.0157 98.7412L30.989 98.4405L28.9968 98.6178L29.0236 98.9185L31.0157 98.7412ZM31.0197 557.487V98.8299H29.0197V557.487H31.0197ZM31.0142 557.655C31.0161 557.61 31.0178 557.564 31.0192 557.518L29.0201 557.457C29.019 557.495 29.0176 557.533 29.016 557.571L31.0142 557.655ZM29.0138 557.743C29.0263 557.791 29.0394 557.838 29.053 557.886L30.9771 557.34C30.9666 557.303 30.9566 557.267 30.9471 557.231L29.0138 557.743ZM28.9805 98.8299V557.487H30.9805V98.8299H28.9805ZM28.9938 98.4865C28.9894 98.589 28.9853 98.6901 28.9813 98.7899L30.9797 98.8698C30.9836 98.7719 30.9877 98.6725 30.992 98.5717L28.9938 98.4865ZM14.8373 31.2253C17.5076 31.2253 19.9392 30.0887 21.8689 28.2343L20.4832 26.7922C18.865 28.3472 16.9122 29.2253 14.8373 29.2253V31.2253ZM8.77372 29.071C10.5239 30.4257 12.599 31.2253 14.8373 31.2253V29.2253C13.0935 29.2253 11.4406 28.6061 9.99789 27.4894L8.77372 29.071ZM8.67509 26.4606L8.39939 28.1159L10.3722 28.4445L10.6479 26.7892L8.67509 26.4606ZM21.0483 25.6249H9.6615V27.6249H21.0483V25.6249ZM22.1659 27.3708L22.0381 26.4825L20.0585 26.7673L20.1862 27.6556L22.1659 27.3708Z" fill="url(#paint0_linear_642_10391)" mask="url(#path-1-inside-1_642_10391)"/>
<defs>
<linearGradient id="paint0_linear_642_10391" x1="30" y1="0" x2="30" y2="567" gradientUnits="userSpaceOnUse">
<stop stop-color="#CA80EF"/>
<stop offset="1" stop-color="#5BB5FF"/>
</linearGradient>
</defs>
</svg>
