<svg width="199" height="569" viewBox="0 0 199 569" fill="none" xmlns="http://www.w3.org/2000/svg">
<path d="M97.3154 77.1347L70.7255 8.55318C66.9074 -1.29443 73.5059 -0.725201 81.102 5.73958L134.606 52.8674C140.503 58.4598 141.935 58.7798 141.503 59.9521L133.958 73.4418L127.148 84.8721V328.249C127.148 371.794 171.897 322.27 189.732 291.672C194.632 283.264 195.028 279.831 196.541 280.769C202.248 297.651 189.84 336.338 182.922 353.571C166.579 387.053 160.658 396.523 170.276 425.011C194.92 478.188 203 577.683 193.5 567.238C128.003 488.656 47.5026 510.819 11.5089 560.291C5.02352 569.576 0.773044 568.266 1.00938 564.27C1.50938 555.815 6.00911 546.863 8.79046 540.675L68.78 430.242C84.4549 402.106 77.319 369.866 72.6711 349.351C62.2945 300.957 70.077 288.624 75.2652 288.506C79.4159 322.551 94.7213 324.966 101.855 321.918V110.898C102.115 91.4841 98.9368 80.3 97.3154 77.1347Z" stroke="url(#paint0_linear_642_10451)"/>
<defs>
<linearGradient id="paint0_linear_642_10451" x1="99.5" y1="1" x2="99.5" y2="568" gradientUnits="userSpaceOnUse">
<stop stop-color="#CA80EF"/>
<stop offset="1" stop-color="#5BB5FF"/>
</linearGradient>
</defs>
</svg>
