<svg width="42" height="81" viewBox="0 0 42 81" fill="none" xmlns="http://www.w3.org/2000/svg">
<mask id="mask0_624_7131" style="mask-type:alpha" maskUnits="userSpaceOnUse" x="-1" y="-47" width="44" height="128">
<path d="M20.0883 -29.2191L14.3016 -44.5893C13.4707 -46.7963 15.4609 -45.9293 16.5598 -45.2199L28.2038 -34.6578C29.5022 -33.6489 29.6387 -32.8712 29.5446 -32.6084L26.5807 -27.4851V27.0594C28.1614 36.9593 36.3193 25.7194 40.2006 18.8619C40.5958 16.4027 41.3532 16.2083 41.6825 16.4185C42.9245 20.2019 40.2241 28.8723 38.7186 32.7345C35.1619 40.2383 33.8733 42.5873 35.9664 48.9717C41.3297 60.8895 40.4593 65.4454 39.3537 66.2336C28.853 50.2171 10.5614 68.3881 2.72822 79.4756C1.31684 81.5565 0.35241 80.8156 0.0466212 80.185C-0.179201 78.1041 0.470037 75.6396 0.822884 74.6675L13.8782 49.9176C17.2895 43.6119 15.7365 36.3866 14.725 31.7886C12.4668 20.9428 14.1605 18.1788 15.2896 18.1525C16.1929 25.7825 19.5238 26.3237 21.0763 25.6406V-21.6523C21.1327 -26.0032 20.4412 -28.5097 20.0883 -29.2191Z" fill="#5856D6" stroke="url(#paint0_linear_624_7131)" stroke-width="0.265026"/>
</mask>
<g mask="url(#mask0_624_7131)">
<rect y="-46.2246" width="42" height="127.07" fill="white" fill-opacity="0.9"/>
</g>
<defs>
<linearGradient id="paint0_linear_624_7131" x1="21" y1="-46" x2="21" y2="80.8471" gradientUnits="userSpaceOnUse">
<stop stop-color="#CA80EF"/>
<stop offset="1" stop-color="#5BB5FF"/>
</linearGradient>
</defs>
</svg>
