<svg width="152" height="567" viewBox="0 0 152 567" fill="none" xmlns="http://www.w3.org/2000/svg">
<mask id="mask0_642_10589" style="mask-type:alpha" maskUnits="userSpaceOnUse" x="0" y="0" width="152" height="567">
<path d="M56.9005 91.1318L79.2923 6.48218C80.8391 0.996485 81.3403 0 83.7077 0H95.0613C102.883 0 104.418 6.86348 104.207 10.2952V24.0222L94.1152 40.4183V65.9657C94.1152 68.7575 96.8796 69.2557 97.269 72.0666V85.6977V86.9375C94.4936 91.5131 91.5922 96.8116 91.5922 102.952V366.815C91.5922 383.592 102.105 386.516 107.361 385.88C119.724 383.745 122.444 378.166 124.449 370.194L125.452 362.721L126.284 352.707C127.958 345.78 135.64 350.8 137.637 352.707C151.009 367.349 145.617 387.44 140.991 397.099C139.517 400.178 137.007 412.432 137.007 416.033V444.22C137.007 451.408 140.49 472.496 145.503 485.288C164.05 532.621 139.174 566.502 117.432 567H40.1854C5.87229 563.95 -2.87223 515.681 0.763158 494.171C1.74538 488.359 4.60577 479.489 5.64914 477.316C10.5988 467.01 18.1808 449.913 22.2089 437.356C27.7595 409.597 16.2167 391.12 16.2167 371.391V326.397C16.9736 313.28 24.3114 310.763 27.8857 311.145C34.1932 310.84 35.9804 317.627 36.0855 321.059V348.894C36.4009 372.535 52.358 368.852 58.4773 366.815C63.2948 365.212 65.4156 359.731 65.4156 356.52V109.053C65.4156 102.14 61.6311 98.6308 59.4235 97.614C56.6482 96.0888 56.5851 92.657 56.9005 91.1318Z" fill="#D9D9D9"/>
</mask>
<g mask="url(#mask0_642_10589)">
<rect x="-24" y="-6" width="200" height="578" fill="url(#paint0_linear_642_10589)"/>
</g>
<defs>
<linearGradient id="paint0_linear_642_10589" x1="76" y1="-6" x2="76" y2="572" gradientUnits="userSpaceOnUse">
<stop stop-color="#B0F6FF"/>
<stop offset="0.375" stop-color="#9CA4FF"/>
<stop offset="1" stop-color="#7B1DFF"/>
</linearGradient>
</defs>
</svg>
